<svg width="300" height="128" viewBox="0 0 300 128" fill="none" xmlns="http://www.w3.org/2000/svg">
<path d="M35.9062 25.2188C39.1146 27.8229 40.7188 30.9479 40.7188 34.5938C40.7188 39.0938 38.4375 42.7188 33.875 45.4688C29.9583 47.8229 25.6042 49 20.8125 49C17.3958 49 14.1771 48.4062 11.1562 47.2188C7.76042 45.8646 5.15625 43.9479 3.34375 41.4688C3.01042 41.0104 2.95833 40.5625 3.1875 40.125C3.41667 39.7292 3.73958 39.4271 4.15625 39.2188L14.9062 34.1562C15.4896 33.8854 16.3958 33.9792 17.625 34.4375C19.125 35.0208 20.1771 35.3125 20.7812 35.3125C21.7604 35.3125 22.6979 35.1354 23.5938 34.7812C24.7604 34.3021 25.3438 33.6458 25.3438 32.8125C25.3438 31.1875 23.8333 30.3958 20.8125 30.4375C18.9167 30.4583 17.0938 30.3021 15.3438 29.9688C11.6771 29.2604 8.46875 27.6771 5.71875 25.2188C2.53125 22.3854 0.9375 19.1458 0.9375 15.5C0.9375 10.8958 3.17708 7.16667 7.65625 4.3125C11.5312 1.8125 15.9167 0.5625 20.8125 0.5625C24.625 0.5625 28.1875 1.33333 31.5 2.875C35.2708 4.64583 37.9062 7.08333 39.4062 10.1875C39.5729 10.5208 39.6562 10.8333 39.6562 11.125C39.6562 11.7917 39.1875 12.2396 38.25 12.4688L26.9375 16.625C26.1042 16.9375 25.5417 16.9792 25.25 16.75C25.0417 16.6042 24.7188 16.375 24.2812 16.0625C23.4271 15.4583 22.2604 15.1562 20.7812 15.1562C19.8229 15.1562 18.8958 15.3333 18 15.6875C16.8333 16.1667 16.25 16.8125 16.25 17.625C16.25 18.4583 16.8333 19.1042 18 19.5625C18.8542 19.9167 19.7812 20.0938 20.7812 20.0938C23.1146 20.1146 25.7604 20.6146 28.7188 21.5938C31.7812 22.5938 34.1771 23.8021 35.9062 25.2188ZM73.2812 0.59375C74.3021 0.59375 74.8125 1.10417 74.8125 2.125V47.9062C74.8125 48.8021 74.5208 49.25 73.9375 49.25C73.8125 49.25 73.6771 49.2292 73.5312 49.1875C72.6979 48.9583 72.0938 48.7188 71.7188 48.4688L55.2812 37.9062C54.7188 37.5521 54.4375 37.6562 54.4375 38.2188C54.4167 40.0312 54.4167 41.5208 54.4375 42.6875V47.1562C54.4375 48.3646 53.8125 48.9688 52.5625 48.9688C52.5625 48.9688 50.5521 48.9688 46.5312 48.9688H40.5C39.4583 48.9688 38.9375 48.4583 38.9375 47.4375V1.875C38.9375 0.916667 39.3333 0.5 40.125 0.625C40.9375 0.770833 41.4792 0.9375 41.75 1.125L57.7812 12.0312C58.1771 12.3021 58.4896 12.4375 58.7188 12.4375C59.1354 12.4375 59.3438 12.0625 59.3438 11.3125V2.125C59.3438 1.0625 59.9479 0.552083 61.1562 0.59375C63.4062 0.65625 65.4271 0.666667 67.2188 0.625C69.2396 0.604167 71.2604 0.59375 73.2812 0.59375ZM79.8438 0.625L112.938 0.5625C114.083 0.5625 114.656 1.05208 114.656 2.03125V13.5312C114.656 14.4896 114.083 14.9688 112.938 14.9688H95.3438C94.1562 14.9688 93.5938 15.5312 93.6562 16.6562C93.7188 17.7812 94.2812 18.3438 95.3438 18.3438H111.156C112.24 18.3438 112.781 18.7917 112.781 19.6875V30.3125C112.781 31.1875 112.24 31.625 111.156 31.625H95.1562C94.1771 31.625 93.6875 32.2292 93.6875 33.4375C93.6667 34.5625 94.1562 35.125 95.1562 35.125H112.938C114.083 35.125 114.656 35.5833 114.656 36.5V47.4375C114.656 48.3542 114.083 48.8125 112.938 48.8125C109.25 48.8125 103.729 48.8438 96.375 48.9062C89.0208 48.9688 83.5104 49 79.8438 49C78.8229 49 78.3125 48.4896 78.3125 47.4688V2.15625C78.3125 1.13542 78.8229 0.625 79.8438 0.625ZM139.188 2.6875L161.656 47.125C161.802 47.4167 161.875 47.6667 161.875 47.875C161.875 48.5833 161.135 48.9375 159.656 48.9375H149.969C148.844 48.9375 148.135 48.875 147.844 48.75C147.469 48.5625 147.042 48.0312 146.562 47.1562C145.854 45.8438 144.698 45.2083 143.094 45.25C140.135 45.3125 137.51 45.3229 135.219 45.2812C132.615 45.2604 130.01 45.25 127.406 45.25C125.969 45.25 124.969 45.8542 124.406 47.0625C123.969 48 123.594 48.5625 123.281 48.75C122.969 48.9167 122.26 49 121.156 49L116.188 48.9688C115.104 48.9688 113.458 48.9583 111.25 48.9375C109.75 48.9375 109 48.5729 109 47.8438C109 47.5938 109.083 47.3021 109.25 46.9688L131.594 2.6875C132.406 1.08333 133.667 0.28125 135.375 0.28125C137.104 0.28125 138.375 1.08333 139.188 2.6875ZM137.688 30C137.312 29.25 136.76 28.1354 136.031 26.6562C135.802 26.4062 135.583 26.2812 135.375 26.2812C135.146 26.2812 134.927 26.4167 134.719 26.6875C134.302 27.4583 133.729 28.5938 133 30.0938C132.75 30.6771 132.917 31.0104 133.5 31.0938H137.312C137.625 31.0938 137.781 30.9375 137.781 30.625C137.802 30.3542 137.771 30.1458 137.688 30ZM166.688 0.625C167.729 0.625 168.25 1.13542 168.25 2.15625V9.59375C168.25 10.5938 168.365 11.0938 168.594 11.0938C168.781 11.0729 169.062 10.6771 169.438 9.90625C170.229 8.17708 171.417 5.59375 173 2.15625C173.479 1.13542 174.312 0.625 175.5 0.625H187.812C188.667 0.625 188.854 1.13542 188.375 2.15625L178.781 22.875C178.26 24 178.281 24.9479 178.844 25.7188L188.938 47.4688C189.125 47.8646 189 48.2292 188.562 48.5625C188.208 48.8542 187.812 49 187.375 49H175.094C174.552 49 174.042 48.4896 173.562 47.4688L169.25 38.1562C169.021 37.6562 168.792 37.4583 168.562 37.5625C168.354 37.6667 168.25 38 168.25 38.5625C168.25 38.5625 168.25 40.0521 168.25 43.0312V47.4688C168.25 48.4896 167.729 49 166.688 49H154.406C153.385 49 152.875 48.4896 152.875 47.4688V2.15625C152.875 1.13542 153.385 0.625 154.406 0.625H166.688ZM189.406 0.625L222.5 0.5625C223.646 0.5625 224.219 1.05208 224.219 2.03125V13.5312C224.219 14.4896 223.646 14.9688 222.5 14.9688H204.906C203.719 14.9688 203.156 15.5312 203.219 16.6562C203.281 17.7812 203.844 18.3438 204.906 18.3438H220.719C221.802 18.3438 222.344 18.7917 222.344 19.6875V30.3125C222.344 31.1875 221.802 31.625 220.719 31.625H204.719C203.74 31.625 203.25 32.2292 203.25 33.4375C203.229 34.5625 203.719 35.125 204.719 35.125H222.5C223.646 35.125 224.219 35.5833 224.219 36.5V47.4375C224.219 48.3542 223.646 48.8125 222.5 48.8125C218.812 48.8125 213.292 48.8438 205.938 48.9062C198.583 48.9688 193.073 49 189.406 49C188.385 49 187.875 48.4896 187.875 47.4688V2.15625C187.875 1.13542 188.385 0.625 189.406 0.625ZM244.156 15.0938H243.75C242.75 15.0938 242.24 15.5729 242.219 16.5312C242.219 16.5312 242.219 17.1979 242.219 18.5312V20.5C242.219 21.5208 242.667 22.0104 243.562 21.9688L244.156 21.9375C246.885 21.7917 248.771 21.5417 249.812 21.1875C251.062 20.75 251.698 19.8125 251.719 18.375C251.719 16.9583 251.083 16.0312 249.812 15.5938C248.792 15.2604 246.906 15.0938 244.156 15.0938ZM243.719 37.375C243.51 37.0417 243.198 36.8438 242.781 36.7812C242.406 36.7396 242.188 37.0417 242.125 37.6875V47.4688C242.125 48.4896 241.615 49 240.594 49H228.281C227.26 49 226.75 48.4896 226.75 47.4688V2.15625C226.75 1.13542 227.229 0.625 228.188 0.625L248.688 0.5C253.042 0.479167 256.771 1.64583 259.875 4C263.062 6.41667 265.104 9.72917 266 13.9375C266.271 15.25 266.406 16.5521 266.406 17.8438C266.406 20.1354 265.969 22.4375 265.094 24.75C263.74 28.3958 261.333 31.1354 257.875 32.9688C257.354 33.2396 257.094 33.5833 257.094 34C257.094 34.3542 257.281 34.7604 257.656 35.2188L265.688 47.4688C265.958 47.8646 266.094 48.1875 266.094 48.4375C266.094 48.8125 265.781 49 265.156 49H252.875C251.854 49 251.01 48.4896 250.344 47.4688L243.719 37.375ZM294.406 25.2188C297.615 27.8229 299.219 30.9479 299.219 34.5938C299.219 39.0938 296.938 42.7188 292.375 45.4688C288.458 47.8229 284.104 49 279.312 49C275.896 49 272.677 48.4062 269.656 47.2188C266.26 45.8646 263.656 43.9479 261.844 41.4688C261.51 41.0104 261.458 40.5625 261.688 40.125C261.917 39.7292 262.24 39.4271 262.656 39.2188L273.406 34.1562C273.99 33.8854 274.896 33.9792 276.125 34.4375C277.625 35.0208 278.677 35.3125 279.281 35.3125C280.26 35.3125 281.198 35.1354 282.094 34.7812C283.26 34.3021 283.844 33.6458 283.844 32.8125C283.844 31.1875 282.333 30.3958 279.312 30.4375C277.417 30.4583 275.594 30.3021 273.844 29.9688C270.177 29.2604 266.969 27.6771 264.219 25.2188C261.031 22.3854 259.438 19.1458 259.438 15.5C259.438 10.8958 261.677 7.16667 266.156 4.3125C270.031 1.8125 274.417 0.5625 279.312 0.5625C283.125 0.5625 286.688 1.33333 290 2.875C293.771 4.64583 296.406 7.08333 297.906 10.1875C298.073 10.5208 298.156 10.8333 298.156 11.125C298.156 11.7917 297.688 12.2396 296.75 12.4688L285.438 16.625C284.604 16.9375 284.042 16.9792 283.75 16.75C283.542 16.6042 283.219 16.375 282.781 16.0625C281.927 15.4583 280.76 15.1562 279.281 15.1562C278.323 15.1562 277.396 15.3333 276.5 15.6875C275.333 16.1667 274.75 16.8125 274.75 17.625C274.75 18.4583 275.333 19.1042 276.5 19.5625C277.354 19.9167 278.281 20.0938 279.281 20.0938C281.615 20.1146 284.26 20.6146 287.219 21.5938C290.281 22.5938 292.677 23.8021 294.406 25.2188ZM35.9062 102.219C39.1146 104.823 40.7188 107.948 40.7188 111.594C40.7188 116.094 38.4375 119.719 33.875 122.469C29.9583 124.823 25.6042 126 20.8125 126C17.3958 126 14.1771 125.406 11.1562 124.219C7.76042 122.865 5.15625 120.948 3.34375 118.469C3.01042 118.01 2.95833 117.562 3.1875 117.125C3.41667 116.729 3.73958 116.427 4.15625 116.219L14.9062 111.156C15.4896 110.885 16.3958 110.979 17.625 111.438C19.125 112.021 20.1771 112.312 20.7812 112.312C21.7604 112.312 22.6979 112.135 23.5938 111.781C24.7604 111.302 25.3438 110.646 25.3438 109.812C25.3438 108.188 23.8333 107.396 20.8125 107.438C18.9167 107.458 17.0938 107.302 15.3438 106.969C11.6771 106.26 8.46875 104.677 5.71875 102.219C2.53125 99.3854 0.9375 96.1458 0.9375 92.5C0.9375 87.8958 3.17708 84.1667 7.65625 81.3125C11.5312 78.8125 15.9167 77.5625 20.8125 77.5625C24.625 77.5625 28.1875 78.3333 31.5 79.875C35.2708 81.6458 37.9062 84.0833 39.4062 87.1875C39.5729 87.5208 39.6562 87.8333 39.6562 88.125C39.6562 88.7917 39.1875 89.2396 38.25 89.4688L26.9375 93.625C26.1042 93.9375 25.5417 93.9792 25.25 93.75C25.0417 93.6042 24.7188 93.375 24.2812 93.0625C23.4271 92.4583 22.2604 92.1562 20.7812 92.1562C19.8229 92.1562 18.8958 92.3333 18 92.6875C16.8333 93.1667 16.25 93.8125 16.25 94.625C16.25 95.4583 16.8333 96.1042 18 96.5625C18.8542 96.9167 19.7812 97.0938 20.7812 97.0938C23.1146 97.1146 25.7604 97.6146 28.7188 98.5938C31.7812 99.5938 34.1771 100.802 35.9062 102.219ZM40.8125 77.6875H73.7812C75.0312 77.6875 75.6562 78.1667 75.6562 79.125V90.6562C75.6562 91.6146 75.0312 92.0938 73.7812 92.0938H66.3125C65.4167 92.0938 64.9688 92.5938 64.9688 93.5938V124.469C64.9688 125.49 64.4583 126 63.4375 126H51.1562C50.1354 126 49.625 125.49 49.625 124.469V93.5938C49.625 92.5938 49.1875 92.0938 48.3125 92.0938H40.8125C39.5625 92.0938 38.9375 91.6146 38.9375 90.6562V79.125C38.9375 78.1667 39.5625 77.6875 40.8125 77.6875ZM94.9062 75.9375C102.031 75.9375 108.104 78.4479 113.125 83.4688C118.146 88.4896 120.656 94.5625 120.656 101.688C120.656 108.833 118.146 114.917 113.125 119.938C108.125 124.938 102.052 127.438 94.9062 127.438C87.7396 127.438 81.6562 124.938 76.6562 119.938C71.6562 114.938 69.1562 108.854 69.1562 101.688C69.1562 94.5417 71.6562 88.4688 76.6562 83.4688C81.6771 78.4479 87.7604 75.9375 94.9062 75.9375ZM94.9062 91.5C92.0938 91.5 89.6875 92.5 87.6875 94.5C85.7083 96.4792 84.7188 98.875 84.7188 101.688C84.7188 104.521 85.7083 106.927 87.6875 108.906C89.6667 110.885 92.0729 111.875 94.9062 111.875C97.7188 111.875 100.115 110.885 102.094 108.906C104.094 106.906 105.094 104.5 105.094 101.688C105.094 98.875 104.094 96.4792 102.094 94.5C100.115 92.5 97.7188 91.5 94.9062 91.5ZM131.719 92.0938H131.312C130.312 92.0938 129.802 92.5729 129.781 93.5312C129.781 93.5312 129.781 94.1979 129.781 95.5312V97.5C129.781 98.5208 130.229 99.0104 131.125 98.9688L131.719 98.9375C134.448 98.7917 136.333 98.5417 137.375 98.1875C138.625 97.75 139.26 96.8125 139.281 95.375C139.281 93.9583 138.646 93.0312 137.375 92.5938C136.354 92.2604 134.469 92.0938 131.719 92.0938ZM131.281 114.375C131.073 114.042 130.76 113.844 130.344 113.781C129.969 113.74 129.75 114.042 129.688 114.688V124.469C129.688 125.49 129.177 126 128.156 126H115.844C114.823 126 114.312 125.49 114.312 124.469V79.1562C114.312 78.1354 114.792 77.625 115.75 77.625L136.25 77.5C140.604 77.4792 144.333 78.6458 147.438 81C150.625 83.4167 152.667 86.7292 153.562 90.9375C153.833 92.25 153.969 93.5521 153.969 94.8438C153.969 97.1354 153.531 99.4375 152.656 101.75C151.302 105.396 148.896 108.135 145.438 109.969C144.917 110.24 144.656 110.583 144.656 111C144.656 111.354 144.844 111.76 145.219 112.219L153.25 124.469C153.521 124.865 153.656 125.188 153.656 125.438C153.656 125.812 153.344 126 152.719 126H140.438C139.417 126 138.573 125.49 137.906 124.469L131.281 114.375ZM150.844 77.625L183.938 77.5625C185.083 77.5625 185.656 78.0521 185.656 79.0312V90.5312C185.656 91.4896 185.083 91.9688 183.938 91.9688H166.344C165.156 91.9688 164.594 92.5312 164.656 93.6562C164.719 94.7812 165.281 95.3438 166.344 95.3438H182.156C183.24 95.3438 183.781 95.7917 183.781 96.6875V107.312C183.781 108.188 183.24 108.625 182.156 108.625H166.156C165.177 108.625 164.688 109.229 164.688 110.438C164.667 111.562 165.156 112.125 166.156 112.125H183.938C185.083 112.125 185.656 112.583 185.656 113.5V124.438C185.656 125.354 185.083 125.812 183.938 125.812C180.25 125.812 174.729 125.844 167.375 125.906C160.021 125.969 154.51 126 150.844 126C149.823 126 149.312 125.49 149.312 124.469V79.1562C149.312 78.1354 149.823 77.625 150.844 77.625Z" fill="url(#paint0_linear_121_9)"/>
<defs>
<linearGradient id="paint0_linear_121_9" x1="144" y1="-46" x2="144" y2="169.5" gradientUnits="userSpaceOnUse">
<stop stop-color="white"/>
<stop offset="0.462259" stop-color="white"/>
<stop offset="0.529255" stop-color="#FFE337"/>
<stop offset="1" stop-color="#FFE337"/>
</linearGradient>
</defs>
</svg>
