<svg width="298" height="57" viewBox="0 0 298 57" fill="none" xmlns="http://www.w3.org/2000/svg">
<path d="M31.5455 48V56.9091H0V48H31.5455ZM34.5625 48V1.45454H47.1989V37.8182H66.017V48H34.5625ZM114.403 24.7273C114.403 29.9091 113.396 34.2803 111.381 37.8409C109.366 41.3864 106.646 44.0758 103.222 45.9091C99.7973 47.7273 95.9792 48.6364 91.767 48.6364C87.5246 48.6364 83.6913 47.7197 80.267 45.8864C76.858 44.0379 74.1458 41.3409 72.1307 37.7955C70.1307 34.2348 69.1307 29.8788 69.1307 24.7273C69.1307 19.5455 70.1307 15.1818 72.1307 11.6364C74.1458 8.07576 76.858 5.38636 80.267 3.56818C83.6913 1.73485 87.5246 0.81818 91.767 0.81818C95.9792 0.81818 99.7973 1.73485 103.222 3.56818C106.646 5.38636 109.366 8.07576 111.381 11.6364C113.396 15.1818 114.403 19.5455 114.403 24.7273ZM101.403 24.7273C101.403 21.9394 101.032 19.5909 100.29 17.6818C99.5625 15.7576 98.4792 14.303 97.0398 13.3182C95.6155 12.3182 93.858 11.8182 91.767 11.8182C89.6761 11.8182 87.911 12.3182 86.4716 13.3182C85.0473 14.303 83.964 15.7576 83.2216 17.6818C82.4943 19.5909 82.1307 21.9394 82.1307 24.7273C82.1307 27.5152 82.4943 29.8712 83.2216 31.7955C83.964 33.7045 85.0473 35.1591 86.4716 36.1591C87.911 37.1439 89.6761 37.6364 91.767 37.6364C93.858 37.6364 95.6155 37.1439 97.0398 36.1591C98.4792 35.1591 99.5625 33.7045 100.29 31.7955C101.032 29.8712 101.403 27.5152 101.403 24.7273ZM138.159 48H120.25V1.45454H137.977C142.765 1.45454 146.902 2.38636 150.386 4.25C153.886 6.09848 156.583 8.76515 158.477 12.25C160.386 15.7197 161.341 19.8788 161.341 24.7273C161.341 29.5758 160.394 33.7424 158.5 37.2273C156.606 40.697 153.924 43.3636 150.455 45.2273C146.985 47.0758 142.886 48 138.159 48ZM132.886 37.2727H137.705C140.008 37.2727 141.97 36.9015 143.591 36.1591C145.227 35.4167 146.47 34.1364 147.318 32.3182C148.182 30.5 148.614 27.9697 148.614 24.7273C148.614 21.4848 148.174 18.9545 147.295 17.1364C146.432 15.3182 145.159 14.0379 143.477 13.2955C141.811 12.553 139.765 12.1818 137.341 12.1818H132.886V37.2727ZM176.341 48H162.705L178.068 1.45454H195.341L210.705 48H197.068L186.886 14.2727H186.523L176.341 48ZM173.795 29.6364H199.432V39.0909H173.795V29.6364ZM238.466 16C238.345 14.4848 237.777 13.303 236.761 12.4545C235.761 11.6061 234.239 11.1818 232.193 11.1818C230.89 11.1818 229.822 11.3409 228.989 11.6591C228.17 11.9621 227.564 12.3788 227.17 12.9091C226.777 13.4394 226.572 14.0455 226.557 14.7273C226.527 15.2879 226.625 15.7955 226.852 16.25C227.095 16.6894 227.473 17.0909 227.989 17.4545C228.504 17.803 229.163 18.1212 229.966 18.4091C230.769 18.697 231.723 18.9545 232.83 19.1818L236.648 20C239.223 20.5455 241.428 21.2652 243.261 22.1591C245.095 23.053 246.595 24.1061 247.761 25.3182C248.928 26.5152 249.784 27.8636 250.33 29.3636C250.89 30.8636 251.178 32.5 251.193 34.2727C251.178 37.3333 250.413 39.9242 248.898 42.0455C247.383 44.1667 245.216 45.7803 242.398 46.8864C239.595 47.9924 236.223 48.5455 232.284 48.5455C228.239 48.5455 224.708 47.947 221.693 46.75C218.693 45.553 216.36 43.7121 214.693 41.2273C213.042 38.7273 212.208 35.5303 212.193 31.6364H224.193C224.269 33.0606 224.625 34.2576 225.261 35.2273C225.898 36.197 226.792 36.9318 227.943 37.4318C229.11 37.9318 230.496 38.1818 232.102 38.1818C233.451 38.1818 234.58 38.0152 235.489 37.6818C236.398 37.3485 237.087 36.8864 237.557 36.2955C238.027 35.7045 238.269 35.0303 238.284 34.2727C238.269 33.5606 238.034 32.9394 237.58 32.4091C237.14 31.8636 236.413 31.3788 235.398 30.9545C234.383 30.5152 233.011 30.1061 231.284 29.7273L226.648 28.7273C222.527 27.8333 219.277 26.3409 216.898 24.25C214.534 22.1439 213.36 19.2727 213.375 15.6364C213.36 12.6818 214.148 10.0985 215.739 7.88636C217.345 5.65909 219.564 3.92424 222.398 2.68182C225.246 1.43939 228.511 0.81818 232.193 0.81818C235.951 0.81818 239.201 1.44697 241.943 2.70454C244.686 3.96212 246.799 5.73485 248.284 8.02273C249.784 10.2955 250.542 12.9545 250.557 16H238.466ZM256 48V1.45454H268.636V19.6364H285.364V1.45454H298V48H285.364V29.8182H268.636V48H256Z" fill="white"/>
</svg>
