<svg width="210" height="186" viewBox="0 0 210 186" fill="none" xmlns="http://www.w3.org/2000/svg">
<path d="M105 111.729C115.269 111.729 123.594 103.404 123.594 93.1353C123.594 82.8662 115.269 74.5415 105 74.5415C94.731 74.5415 86.4062 82.8662 86.4062 93.1353C86.4062 103.404 94.731 111.729 105 111.729Z" fill="#00DAFC"/>
<path d="M52.9376 130.104L48.823 129.052C18.2605 121.333 0.729248 108.208 0.729248 93.0939C0.729248 77.9689 18.2709 64.8543 48.823 57.1356L52.9376 56.0939L54.0938 60.1668C57.1828 70.8303 61.1405 81.2228 65.9272 91.2397L66.8126 93.0939L65.9272 94.9481C61.1355 104.979 57.1668 115.375 54.0938 126.042L52.9376 130.104ZM46.9272 66.6147C23.7084 73.1564 9.448 83.1356 9.448 93.0939C9.448 103.031 23.698 113.021 46.9272 119.552C49.7709 110.511 53.2084 101.667 57.1876 93.0939C53.1796 84.5067 49.7518 75.6605 46.9272 66.6147ZM157.052 130.104L155.906 126.021C152.809 115.355 148.848 104.96 144.063 94.9377L143.177 93.0939L144.063 91.2293C148.854 81.2189 152.802 70.8127 155.906 60.146L157.052 56.0835L161.167 57.1252C191.74 64.8439 209.261 77.9585 209.261 93.0939C209.261 108.219 191.729 121.333 161.167 129.052L157.052 130.104ZM152.781 93.0939C156.948 102.115 160.417 110.99 163.063 119.552C186.292 113.021 200.552 103.031 200.552 93.0939C200.552 83.1356 186.302 73.1668 163.063 66.6147C160.222 75.6577 156.787 84.5033 152.781 93.0939Z" fill="#00DAFC"/>
<path d="M46.8647 66.573L45.7188 62.5105C37.1147 32.2188 39.7188 10.5209 52.8751 2.9584C65.7397 -4.48952 86.4376 4.31257 108.115 26.5522L111.073 29.5938L108.115 32.6251C100.415 40.6322 93.3785 49.2508 87.073 58.3959L85.8959 60.0834L83.8543 60.2501C72.7666 61.1209 61.7684 62.8941 50.9688 65.5522L46.8647 66.573ZM63.3438 8.97923C61.0105 8.97923 58.948 9.48965 57.2084 10.4897C48.5834 15.4584 47.0626 32.7605 53.0001 56.1147C62.2813 54.0626 71.6459 52.5938 81.0834 51.7709C86.5471 44.0215 92.5075 36.6344 98.9272 29.6563C85.3543 16.4584 72.5418 8.97923 63.3438 8.97923ZM146.646 185.896C134.271 185.896 118.375 176.563 101.875 159.625L98.9272 156.594L101.875 153.573C109.576 145.553 116.616 136.924 122.927 127.771L124.094 126.104L126.115 125.906C137.206 125.051 148.209 123.285 159.011 120.625L163.125 119.583L164.281 123.656C172.844 153.927 170.25 175.656 157.115 183.219C153.925 185.027 150.312 185.951 146.646 185.896ZM111.073 156.521C124.636 169.719 137.458 177.208 146.646 177.208C148.99 177.208 151.052 176.688 152.781 175.698C161.417 170.719 162.948 153.385 156.99 130.031C147.719 132.094 138.344 133.573 128.886 134.396C123.445 142.158 117.494 149.549 111.073 156.521Z" fill="#00DAFC"/>
<path d="M163.125 66.5727L159.01 65.5415C148.209 62.8752 137.207 61.1018 126.115 60.2394L124.094 60.0623L122.927 58.3748C116.624 49.2247 109.584 40.6056 101.875 32.604L98.9271 29.5728L101.875 26.5519C123.542 4.32276 144.229 -4.47933 157.115 2.95817C170.26 10.5311 172.875 32.229 164.281 62.5103L163.125 66.5727ZM128.885 51.7707C138.823 52.6561 148.24 54.1457 156.99 56.1144C162.938 32.7603 161.417 15.4582 152.781 10.479C144.198 5.51025 128.042 13.1144 111.073 29.6561C117.49 36.6353 123.448 44.0103 128.885 51.7707ZM63.3438 185.896C59.6785 185.948 56.0653 185.024 52.875 183.219C39.7188 175.656 37.1146 153.937 45.7084 123.656L46.8334 119.583L50.9479 120.625C60.9896 123.156 72.0521 124.937 83.8438 125.906L85.8646 126.104L87.0417 127.771C93.3334 136.916 100.375 145.552 108.083 153.573L111.042 156.594L108.083 159.625C91.5938 176.573 75.698 185.896 63.3438 185.896ZM53 130.041C47.0625 153.396 48.5834 170.729 57.2084 175.708C65.8021 180.604 81.9063 173.052 98.9271 156.521C92.51 149.54 86.5497 142.154 81.0834 134.406C71.6364 133.571 62.2549 132.113 53 130.041Z" fill="#00DAFC"/>
<path d="M105 135.511C97.8438 135.511 90.5 135.209 83.125 134.594L81.0833 134.417L79.9062 132.729C75.7474 126.749 71.8345 120.602 68.1771 114.302C64.5468 107.986 61.1725 101.526 58.0625 94.9377L57.1875 93.0939L58.0625 91.2293C61.1771 84.646 64.5417 78.1877 68.1771 71.8752C71.7917 65.6668 75.7396 59.4585 79.9062 53.4377L81.0833 51.771L83.125 51.5835C97.6759 50.3647 112.303 50.3647 126.854 51.5835L128.875 51.7814L130.052 53.4481C138.383 65.4143 145.7 78.0554 151.927 91.2397L152.792 93.1043L151.927 94.9481C145.718 108.141 138.4 120.784 130.052 132.74L128.875 134.427L126.854 134.604C119.5 135.198 112.146 135.511 105 135.511ZM85.8958 126.094C98.7604 127.063 111.24 127.063 124.094 126.094C131.27 115.586 137.649 104.555 143.177 93.0939C137.668 81.6227 131.288 70.5904 124.094 60.0939C111.38 59.1147 98.6097 59.1147 85.8958 60.0939C78.6952 70.5866 72.3151 81.6193 66.8125 93.0939C72.3529 104.549 78.7313 115.578 85.8958 126.094Z" fill="#00DAFC"/>
</svg>
