<svg width="363" height="126" viewBox="0 0 363 126" fill="none" xmlns="http://www.w3.org/2000/svg">
<path d="M17.8125 13.0625V21.4375H24.5C26.4583 21.4375 27.4375 20.0417 27.4375 17.25C27.4375 14.4583 26.4375 13.0625 24.4375 13.0625H17.8125ZM17.8125 33.5625V49H0.5V0.875H28.3125C33.6875 0.875 37.9375 2.35417 41.0625 5.3125C44.1875 8.22917 45.75 12.1667 45.75 17.125C45.75 22.0833 44.2083 26.0625 41.125 29.0625C38.0417 32.0625 33.7708 33.5625 28.3125 33.5625H17.8125ZM50.3125 0.875H67.625V49H50.3125V0.875ZM116.125 36.8125V49H73.6875V40.0625L93.1875 13.0625H74.3125V0.875H115.312V9.8125L95.125 36.8125H116.125ZM163.688 36.8125V49H121.25V40.0625L140.75 13.0625H121.875V0.875H162.875V9.8125L142.688 36.8125H163.688ZM192.75 31L189.125 16.875L186 31H192.75ZM196.125 43.1875H183.125L181.75 49H166.375L181.125 0.875H200.938L215.688 49H197.75L196.125 43.1875ZM17.8125 90.0625V113.812H19.3125C21.9375 113.812 24 112.667 25.5 110.375C27.0417 108.083 27.8125 105.062 27.8125 101.312C27.8125 97.5208 26.875 94.7083 25 92.875C23.1667 91 21.2708 90.0625 19.3125 90.0625H17.8125ZM23.1875 126H0.5V77.875H23.1875C30.1458 77.875 35.6458 80.2708 39.6875 85.0625C43.7292 89.8542 45.75 95.625 45.75 102.375C45.75 109.083 43.6667 114.708 39.5 119.25C35.3333 123.75 29.8958 126 23.1875 126ZM89.3125 95.875V108H67.5V113.812H92.125V126H50.1875V77.875H91.1875V90.0625H67.5V95.875H89.3125ZM98.375 77.875H115.688V113.812H138.688V126H98.375V77.875ZM143.938 77.875H161.25V126H143.938V77.875ZM200.562 126H180.125L165.375 77.875H183.938L192.562 110.625L199.938 77.875H215.312L200.562 126ZM258.562 95.875V108H236.75V113.812H261.375V126H219.438V77.875H260.438V90.0625H236.75V95.875H258.562ZM284.938 109.312V126H267.625V77.875H295.438C300.812 77.875 305.062 79.25 308.188 82C311.312 84.7083 312.875 88.5417 312.875 93.5C312.875 100.583 309.938 105.354 304.062 107.812L313.75 126H294.5L286.375 109.312H284.938ZM284.938 90.0625V97.125H291.562C293.562 97.125 294.562 95.9583 294.562 93.625C294.562 91.25 293.562 90.0625 291.562 90.0625H284.938ZM340.25 96.4375L347.625 77.875H363L347.25 108.75V126H330V108.312L314.375 77.875H331.625L340.25 96.4375Z" fill="url(#paint0_linear_121_10)"/>
<defs>
<linearGradient id="paint0_linear_121_10" x1="-20" y1="-10" x2="383" y2="120.5" gradientUnits="userSpaceOnUse">
<stop stop-color="white"/>
<stop offset="0.457975" stop-color="white"/>
<stop offset="0.458161" stop-color="#FF4D08"/>
<stop offset="1" stop-color="#FF4800"/>
</linearGradient>
</defs>
</svg>
