<svg width="634" height="982" viewBox="0 0 634 982" fill="none" xmlns="http://www.w3.org/2000/svg">
<rect x="3.00024" width="514" height="982" fill="#212227"/>
<path d="M28.581 704.719L34.0723 727.825L35.5317 727.478C38.0856 726.872 39.8272 725.28 40.7567 722.703C41.7267 720.117 41.7782 717 40.9112 713.352C40.0345 709.663 38.4721 707.143 36.224 705.793C34.0068 704.393 31.9456 703.919 30.0403 704.372L28.581 704.719ZM42.1196 738.44L20.0469 743.685L8.91964 696.865L30.9924 691.619C37.7621 690.01 43.6671 691.069 48.7071 694.797C53.7472 698.524 57.0476 703.671 58.6083 710.238C60.1593 716.765 59.4331 722.719 56.4294 728.101C53.4161 733.442 48.6462 736.889 42.1196 738.44ZM81.373 711.959L85.2314 728.194L68.388 732.197L57.2607 685.376L84.3196 678.945C89.5489 677.703 94.0017 678.058 97.6778 680.011C101.344 681.923 103.751 685.291 104.897 690.115C106.535 697.006 104.78 702.327 99.6329 706.077L113.263 721.532L94.5348 725.983L82.7715 711.626L81.373 711.959ZM76.922 693.23L78.555 700.101L85.0005 698.57C86.9463 698.107 87.6494 696.741 87.1099 694.471C86.5608 692.16 85.3133 691.236 83.3675 691.699L76.922 693.23ZM136.282 697.56L129.489 684.656L129.715 699.121L136.282 697.56ZM142.383 708.637L129.735 711.643L129.742 717.616L114.783 721.171L118.006 670.939L137.282 666.358L162.76 709.769L145.308 713.916L142.383 708.637ZM179.381 668.88C175.368 669.834 174.276 674.162 176.107 681.864C177.937 689.566 180.9 692.931 184.994 691.958C187.953 691.255 189.532 689.338 189.73 686.207L186.386 687.002L184.16 677.638L204.53 672.797L210.614 698.396L197.541 701.503L196.311 699.033C194.946 701.756 191.689 703.729 186.54 704.952C180.095 706.484 174.243 705.648 168.984 702.444C163.767 699.23 160.223 693.691 158.354 685.826C156.476 677.921 157.407 671.297 161.148 665.954C164.889 660.611 169.678 657.246 175.515 655.859C181.393 654.462 186.702 654.635 191.442 656.378C196.213 658.071 199.739 661.194 202.02 665.748L186.756 673.423C184.88 669.672 182.462 668.148 179.502 668.851C179.502 668.851 179.462 668.861 179.381 668.88ZM229.7 656.793C228.861 653.267 229.892 649.852 232.79 646.551C235.679 643.209 240.063 640.84 245.941 639.443C256.115 637.025 263.723 638.579 268.762 644.105L257.2 652.763C255.865 651.11 253.313 650.732 249.543 651.628C246.867 652.264 245.761 653.554 246.223 655.5C246.676 657.405 247.875 658.127 249.821 657.664L274.387 651.826L277.191 663.623L274.393 664.287L279.105 684.11L264.146 687.665L262.708 684.859C260.712 687.09 258.396 688.518 255.761 689.144C249.923 690.531 245.04 690.257 241.111 688.322C237.173 686.345 234.688 683.189 233.657 678.851C232.424 673.662 233.715 669.544 237.53 666.496C233.427 664.73 230.817 661.496 229.7 656.793ZM250.426 673.453C250.994 675.844 252.763 676.709 255.732 676.046C257.029 675.738 258.161 675.276 259.128 674.661L257.611 668.276L252.625 669.461C250.638 669.933 249.905 671.264 250.426 673.453ZM46.3846 779.632L51.876 802.739L53.3354 802.392C55.8892 801.785 57.6309 800.193 58.5604 797.617C59.5304 795.031 59.5819 791.914 58.7148 788.265C57.8381 784.576 56.2757 782.057 54.0276 780.707C51.8105 779.306 49.7492 778.833 47.844 779.286L46.3846 779.632ZM59.9233 813.353L37.8506 818.599L26.7233 771.778L48.796 766.532C55.5658 764.923 61.4707 765.983 66.5108 769.71C71.5508 773.437 74.8512 778.585 76.4119 785.152C77.963 791.678 77.2367 797.632 74.2331 803.014C71.2198 808.356 66.4499 811.802 59.9233 813.353ZM99.1766 786.872L103.035 803.107L86.1917 807.11L75.0644 760.289L102.123 753.859C107.353 752.616 111.805 752.971 115.481 754.924C119.148 756.836 121.555 760.205 122.701 765.029C124.339 771.92 122.584 777.241 117.437 780.991L131.067 796.446L112.338 800.896L100.575 786.54L99.1766 786.872ZM94.7257 768.144L96.3587 775.015L102.804 773.483C104.75 773.021 105.453 771.654 104.914 769.384C104.364 767.074 103.117 766.15 101.171 766.612L94.7257 768.144ZM153.909 778.49C158.056 777.376 159.223 773.009 157.412 765.388C155.601 757.766 152.648 754.442 148.554 755.415C144.5 756.379 143.384 760.691 145.204 768.353C147.025 776.015 149.927 779.394 153.909 778.49ZM129.759 752.559C133.052 747.493 138.286 744.108 145.461 742.403C152.636 740.698 158.834 741.366 164.054 744.408C169.274 747.451 172.842 753.005 174.759 761.072C176.667 769.099 175.998 775.746 172.753 781.014C169.539 786.232 164.243 789.717 156.866 791.471C149.488 793.224 143.241 792.439 138.126 789.115C133.041 785.741 129.555 780.081 127.666 772.136C125.768 764.15 126.466 757.624 129.759 752.559ZM193.354 744.704L195.29 752.852L201.796 751.306C203.702 750.853 204.332 749.269 203.686 746.553C203.041 743.837 201.745 742.71 199.799 743.172L193.354 744.704ZM198.094 764.649L201.663 779.668L184.82 783.671L173.692 736.85L200.751 730.419C205.981 729.176 210.457 729.633 214.182 731.788C217.896 733.904 220.327 737.373 221.473 742.197C222.62 747.021 222.04 751.249 219.734 754.88C217.428 758.512 213.62 760.959 208.309 762.221L198.094 764.649Z" fill="white"/>
<path d="M28.581 704.719L34.0723 727.825L35.5317 727.478C38.0856 726.872 39.8272 725.28 40.7567 722.703C41.7267 720.117 41.7782 717 40.9112 713.352C40.0345 709.663 38.4721 707.143 36.224 705.793C34.0068 704.393 31.9456 703.919 30.0403 704.372L28.581 704.719ZM42.1196 738.44L20.0469 743.685L8.91964 696.865L30.9924 691.619C37.7621 690.01 43.6671 691.069 48.7071 694.797C53.7472 698.524 57.0476 703.671 58.6083 710.238C60.1593 716.765 59.4331 722.719 56.4294 728.101C53.4161 733.442 48.6462 736.889 42.1196 738.44ZM81.373 711.959L85.2314 728.194L68.388 732.197L57.2607 685.376L84.3196 678.945C89.5489 677.703 94.0017 678.058 97.6778 680.011C101.344 681.923 103.751 685.291 104.897 690.115C106.535 697.006 104.78 702.327 99.6329 706.077L113.263 721.532L94.5348 725.983L82.7715 711.626L81.373 711.959ZM76.922 693.23L78.555 700.101L85.0005 698.57C86.9463 698.107 87.6494 696.741 87.1099 694.471C86.5608 692.16 85.3133 691.236 83.3675 691.699L76.922 693.23ZM136.282 697.56L129.489 684.656L129.715 699.121L136.282 697.56ZM142.383 708.637L129.735 711.643L129.742 717.616L114.783 721.171L118.006 670.939L137.282 666.358L162.76 709.769L145.308 713.916L142.383 708.637ZM179.381 668.88C175.368 669.834 174.276 674.162 176.107 681.864C177.937 689.566 180.9 692.931 184.994 691.958C187.953 691.255 189.532 689.338 189.73 686.207L186.386 687.002L184.16 677.638L204.53 672.797L210.614 698.396L197.541 701.503L196.311 699.033C194.946 701.756 191.689 703.729 186.54 704.952C180.095 706.484 174.243 705.648 168.984 702.444C163.767 699.23 160.223 693.691 158.354 685.826C156.476 677.921 157.407 671.297 161.148 665.954C164.889 660.611 169.678 657.246 175.515 655.859C181.393 654.462 186.702 654.635 191.442 656.378C196.213 658.071 199.739 661.194 202.02 665.748L186.756 673.423C184.88 669.672 182.462 668.148 179.502 668.851C179.502 668.851 179.462 668.861 179.381 668.88ZM229.7 656.793C228.861 653.267 229.892 649.852 232.79 646.551C235.679 643.209 240.063 640.84 245.941 639.443C256.115 637.025 263.723 638.579 268.762 644.105L257.2 652.763C255.865 651.11 253.313 650.732 249.543 651.628C246.867 652.264 245.761 653.554 246.223 655.5C246.676 657.405 247.875 658.127 249.821 657.664L274.387 651.826L277.191 663.623L274.393 664.287L279.105 684.11L264.146 687.665L262.708 684.859C260.712 687.09 258.396 688.518 255.761 689.144C249.923 690.531 245.04 690.257 241.111 688.322C237.173 686.345 234.688 683.189 233.657 678.851C232.424 673.662 233.715 669.544 237.53 666.496C233.427 664.73 230.817 661.496 229.7 656.793ZM250.426 673.453C250.994 675.844 252.763 676.709 255.732 676.046C257.029 675.738 258.161 675.276 259.128 674.661L257.611 668.276L252.625 669.461C250.638 669.933 249.905 671.264 250.426 673.453ZM46.3846 779.632L51.876 802.739L53.3354 802.392C55.8892 801.785 57.6309 800.193 58.5604 797.617C59.5304 795.031 59.5819 791.914 58.7148 788.265C57.8381 784.576 56.2757 782.057 54.0276 780.707C51.8105 779.306 49.7492 778.833 47.844 779.286L46.3846 779.632ZM59.9233 813.353L37.8506 818.599L26.7233 771.778L48.796 766.532C55.5658 764.923 61.4707 765.983 66.5108 769.71C71.5508 773.437 74.8512 778.585 76.4119 785.152C77.963 791.678 77.2367 797.632 74.2331 803.014C71.2198 808.356 66.4499 811.802 59.9233 813.353ZM99.1766 786.872L103.035 803.107L86.1917 807.11L75.0644 760.289L102.123 753.859C107.353 752.616 111.805 752.971 115.481 754.924C119.148 756.836 121.555 760.205 122.701 765.029C124.339 771.92 122.584 777.241 117.437 780.991L131.067 796.446L112.338 800.896L100.575 786.54L99.1766 786.872ZM94.7257 768.144L96.3587 775.015L102.804 773.483C104.75 773.021 105.453 771.654 104.914 769.384C104.364 767.074 103.117 766.15 101.171 766.612L94.7257 768.144ZM153.909 778.49C158.056 777.376 159.223 773.009 157.412 765.388C155.601 757.766 152.648 754.442 148.554 755.415C144.5 756.379 143.384 760.691 145.204 768.353C147.025 776.015 149.927 779.394 153.909 778.49ZM129.759 752.559C133.052 747.493 138.286 744.108 145.461 742.403C152.636 740.698 158.834 741.366 164.054 744.408C169.274 747.451 172.842 753.005 174.759 761.072C176.667 769.099 175.998 775.746 172.753 781.014C169.539 786.232 164.243 789.717 156.866 791.471C149.488 793.224 143.241 792.439 138.126 789.115C133.041 785.741 129.555 780.081 127.666 772.136C125.768 764.15 126.466 757.624 129.759 752.559ZM193.354 744.704L195.29 752.852L201.796 751.306C203.702 750.853 204.332 749.269 203.686 746.553C203.041 743.837 201.745 742.71 199.799 743.172L193.354 744.704ZM198.094 764.649L201.663 779.668L184.82 783.671L173.692 736.85L200.751 730.419C205.981 729.176 210.457 729.633 214.182 731.788C217.896 733.904 220.327 737.373 221.473 742.197C222.62 747.021 222.04 751.249 219.734 754.88C217.428 758.512 213.62 760.959 208.309 762.221L198.094 764.649Z" fill="white"/>
<path d="M28.581 704.719L34.0723 727.825L35.5317 727.478C38.0856 726.872 39.8272 725.28 40.7567 722.703C41.7267 720.117 41.7782 717 40.9112 713.352C40.0345 709.663 38.4721 707.143 36.224 705.793C34.0068 704.393 31.9456 703.919 30.0403 704.372L28.581 704.719ZM42.1196 738.44L20.0469 743.685L8.91964 696.865L30.9924 691.619C37.7621 690.01 43.6671 691.069 48.7071 694.797C53.7472 698.524 57.0476 703.671 58.6083 710.238C60.1593 716.765 59.4331 722.719 56.4294 728.101C53.4161 733.442 48.6462 736.889 42.1196 738.44ZM81.373 711.959L85.2314 728.194L68.388 732.197L57.2607 685.376L84.3196 678.945C89.5489 677.703 94.0017 678.058 97.6778 680.011C101.344 681.923 103.751 685.291 104.897 690.115C106.535 697.006 104.78 702.327 99.6329 706.077L113.263 721.532L94.5348 725.983L82.7715 711.626L81.373 711.959ZM76.922 693.23L78.555 700.101L85.0005 698.57C86.9463 698.107 87.6494 696.741 87.1099 694.471C86.5608 692.16 85.3133 691.236 83.3675 691.699L76.922 693.23ZM136.282 697.56L129.489 684.656L129.715 699.121L136.282 697.56ZM142.383 708.637L129.735 711.643L129.742 717.616L114.783 721.171L118.006 670.939L137.282 666.358L162.76 709.769L145.308 713.916L142.383 708.637ZM179.381 668.88C175.368 669.834 174.276 674.162 176.107 681.864C177.937 689.566 180.9 692.931 184.994 691.958C187.953 691.255 189.532 689.338 189.73 686.207L186.386 687.002L184.16 677.638L204.53 672.797L210.614 698.396L197.541 701.503L196.311 699.033C194.946 701.756 191.689 703.729 186.54 704.952C180.095 706.484 174.243 705.648 168.984 702.444C163.767 699.23 160.223 693.691 158.354 685.826C156.476 677.921 157.407 671.297 161.148 665.954C164.889 660.611 169.678 657.246 175.515 655.859C181.393 654.462 186.702 654.635 191.442 656.378C196.213 658.071 199.739 661.194 202.02 665.748L186.756 673.423C184.88 669.672 182.462 668.148 179.502 668.851C179.502 668.851 179.462 668.861 179.381 668.88ZM229.7 656.793C228.861 653.267 229.892 649.852 232.79 646.551C235.679 643.209 240.063 640.84 245.941 639.443C256.115 637.025 263.723 638.579 268.762 644.105L257.2 652.763C255.865 651.11 253.313 650.732 249.543 651.628C246.867 652.264 245.761 653.554 246.223 655.5C246.676 657.405 247.875 658.127 249.821 657.664L274.387 651.826L277.191 663.623L274.393 664.287L279.105 684.11L264.146 687.665L262.708 684.859C260.712 687.09 258.396 688.518 255.761 689.144C249.923 690.531 245.04 690.257 241.111 688.322C237.173 686.345 234.688 683.189 233.657 678.851C232.424 673.662 233.715 669.544 237.53 666.496C233.427 664.73 230.817 661.496 229.7 656.793ZM250.426 673.453C250.994 675.844 252.763 676.709 255.732 676.046C257.029 675.738 258.161 675.276 259.128 674.661L257.611 668.276L252.625 669.461C250.638 669.933 249.905 671.264 250.426 673.453ZM46.3846 779.632L51.876 802.739L53.3354 802.392C55.8892 801.785 57.6309 800.193 58.5604 797.617C59.5304 795.031 59.5819 791.914 58.7148 788.265C57.8381 784.576 56.2757 782.057 54.0276 780.707C51.8105 779.306 49.7492 778.833 47.844 779.286L46.3846 779.632ZM59.9233 813.353L37.8506 818.599L26.7233 771.778L48.796 766.532C55.5658 764.923 61.4707 765.983 66.5108 769.71C71.5508 773.437 74.8512 778.585 76.4119 785.152C77.963 791.678 77.2367 797.632 74.2331 803.014C71.2198 808.356 66.4499 811.802 59.9233 813.353ZM99.1766 786.872L103.035 803.107L86.1917 807.11L75.0644 760.289L102.123 753.859C107.353 752.616 111.805 752.971 115.481 754.924C119.148 756.836 121.555 760.205 122.701 765.029C124.339 771.92 122.584 777.241 117.437 780.991L131.067 796.446L112.338 800.896L100.575 786.54L99.1766 786.872ZM94.7257 768.144L96.3587 775.015L102.804 773.483C104.75 773.021 105.453 771.654 104.914 769.384C104.364 767.074 103.117 766.15 101.171 766.612L94.7257 768.144ZM153.909 778.49C158.056 777.376 159.223 773.009 157.412 765.388C155.601 757.766 152.648 754.442 148.554 755.415C144.5 756.379 143.384 760.691 145.204 768.353C147.025 776.015 149.927 779.394 153.909 778.49ZM129.759 752.559C133.052 747.493 138.286 744.108 145.461 742.403C152.636 740.698 158.834 741.366 164.054 744.408C169.274 747.451 172.842 753.005 174.759 761.072C176.667 769.099 175.998 775.746 172.753 781.014C169.539 786.232 164.243 789.717 156.866 791.471C149.488 793.224 143.241 792.439 138.126 789.115C133.041 785.741 129.555 780.081 127.666 772.136C125.768 764.15 126.466 757.624 129.759 752.559ZM193.354 744.704L195.29 752.852L201.796 751.306C203.702 750.853 204.332 749.269 203.686 746.553C203.041 743.837 201.745 742.71 199.799 743.172L193.354 744.704ZM198.094 764.649L201.663 779.668L184.82 783.671L173.692 736.85L200.751 730.419C205.981 729.176 210.457 729.633 214.182 731.788C217.896 733.904 220.327 737.373 221.473 742.197C222.62 747.021 222.04 751.249 219.734 754.88C217.428 758.512 213.62 760.959 208.309 762.221L198.094 764.649Z" fill="white"/>
<path d="M28.581 704.719L34.0723 727.825L35.5317 727.478C38.0856 726.872 39.8272 725.28 40.7567 722.703C41.7267 720.117 41.7782 717 40.9112 713.352C40.0345 709.663 38.4721 707.143 36.224 705.793C34.0068 704.393 31.9456 703.919 30.0403 704.372L28.581 704.719ZM42.1196 738.44L20.0469 743.685L8.91964 696.865L30.9924 691.619C37.7621 690.01 43.6671 691.069 48.7071 694.797C53.7472 698.524 57.0476 703.671 58.6083 710.238C60.1593 716.765 59.4331 722.719 56.4294 728.101C53.4161 733.442 48.6462 736.889 42.1196 738.44ZM81.373 711.959L85.2314 728.194L68.388 732.197L57.2607 685.376L84.3196 678.945C89.5489 677.703 94.0017 678.058 97.6778 680.011C101.344 681.923 103.751 685.291 104.897 690.115C106.535 697.006 104.78 702.327 99.6329 706.077L113.263 721.532L94.5348 725.983L82.7715 711.626L81.373 711.959ZM76.922 693.23L78.555 700.101L85.0005 698.57C86.9463 698.107 87.6494 696.741 87.1099 694.471C86.5608 692.16 85.3133 691.236 83.3675 691.699L76.922 693.23ZM136.282 697.56L129.489 684.656L129.715 699.121L136.282 697.56ZM142.383 708.637L129.735 711.643L129.742 717.616L114.783 721.171L118.006 670.939L137.282 666.358L162.76 709.769L145.308 713.916L142.383 708.637ZM179.381 668.88C175.368 669.834 174.276 674.162 176.107 681.864C177.937 689.566 180.9 692.931 184.994 691.958C187.953 691.255 189.532 689.338 189.73 686.207L186.386 687.002L184.16 677.638L204.53 672.797L210.614 698.396L197.541 701.503L196.311 699.033C194.946 701.756 191.689 703.729 186.54 704.952C180.095 706.484 174.243 705.648 168.984 702.444C163.767 699.23 160.223 693.691 158.354 685.826C156.476 677.921 157.407 671.297 161.148 665.954C164.889 660.611 169.678 657.246 175.515 655.859C181.393 654.462 186.702 654.635 191.442 656.378C196.213 658.071 199.739 661.194 202.02 665.748L186.756 673.423C184.88 669.672 182.462 668.148 179.502 668.851C179.502 668.851 179.462 668.861 179.381 668.88ZM229.7 656.793C228.861 653.267 229.892 649.852 232.79 646.551C235.679 643.209 240.063 640.84 245.941 639.443C256.115 637.025 263.723 638.579 268.762 644.105L257.2 652.763C255.865 651.11 253.313 650.732 249.543 651.628C246.867 652.264 245.761 653.554 246.223 655.5C246.676 657.405 247.875 658.127 249.821 657.664L274.387 651.826L277.191 663.623L274.393 664.287L279.105 684.11L264.146 687.665L262.708 684.859C260.712 687.09 258.396 688.518 255.761 689.144C249.923 690.531 245.04 690.257 241.111 688.322C237.173 686.345 234.688 683.189 233.657 678.851C232.424 673.662 233.715 669.544 237.53 666.496C233.427 664.73 230.817 661.496 229.7 656.793ZM250.426 673.453C250.994 675.844 252.763 676.709 255.732 676.046C257.029 675.738 258.161 675.276 259.128 674.661L257.611 668.276L252.625 669.461C250.638 669.933 249.905 671.264 250.426 673.453ZM46.3846 779.632L51.876 802.739L53.3354 802.392C55.8892 801.785 57.6309 800.193 58.5604 797.617C59.5304 795.031 59.5819 791.914 58.7148 788.265C57.8381 784.576 56.2757 782.057 54.0276 780.707C51.8105 779.306 49.7492 778.833 47.844 779.286L46.3846 779.632ZM59.9233 813.353L37.8506 818.599L26.7233 771.778L48.796 766.532C55.5658 764.923 61.4707 765.983 66.5108 769.71C71.5508 773.437 74.8512 778.585 76.4119 785.152C77.963 791.678 77.2367 797.632 74.2331 803.014C71.2198 808.356 66.4499 811.802 59.9233 813.353ZM99.1766 786.872L103.035 803.107L86.1917 807.11L75.0644 760.289L102.123 753.859C107.353 752.616 111.805 752.971 115.481 754.924C119.148 756.836 121.555 760.205 122.701 765.029C124.339 771.92 122.584 777.241 117.437 780.991L131.067 796.446L112.338 800.896L100.575 786.54L99.1766 786.872ZM94.7257 768.144L96.3587 775.015L102.804 773.483C104.75 773.021 105.453 771.654 104.914 769.384C104.364 767.074 103.117 766.15 101.171 766.612L94.7257 768.144ZM153.909 778.49C158.056 777.376 159.223 773.009 157.412 765.388C155.601 757.766 152.648 754.442 148.554 755.415C144.5 756.379 143.384 760.691 145.204 768.353C147.025 776.015 149.927 779.394 153.909 778.49ZM129.759 752.559C133.052 747.493 138.286 744.108 145.461 742.403C152.636 740.698 158.834 741.366 164.054 744.408C169.274 747.451 172.842 753.005 174.759 761.072C176.667 769.099 175.998 775.746 172.753 781.014C169.539 786.232 164.243 789.717 156.866 791.471C149.488 793.224 143.241 792.439 138.126 789.115C133.041 785.741 129.555 780.081 127.666 772.136C125.768 764.15 126.466 757.624 129.759 752.559ZM193.354 744.704L195.29 752.852L201.796 751.306C203.702 750.853 204.332 749.269 203.686 746.553C203.041 743.837 201.745 742.71 199.799 743.172L193.354 744.704ZM198.094 764.649L201.663 779.668L184.82 783.671L173.692 736.85L200.751 730.419C205.981 729.176 210.457 729.633 214.182 731.788C217.896 733.904 220.327 737.373 221.473 742.197C222.62 747.021 222.04 751.249 219.734 754.88C217.428 758.512 213.62 760.959 208.309 762.221L198.094 764.649Z" fill="white"/>
<path d="M25.581 696.719L31.0723 719.825L32.5317 719.478C35.0856 718.872 36.8272 717.28 37.7567 714.703C38.7267 712.117 38.7782 709 37.9112 705.352C37.0345 701.663 35.4721 699.143 33.224 697.793C31.0068 696.393 28.9456 695.919 27.0403 696.372L25.581 696.719ZM39.1196 730.44L17.0469 735.685L5.91964 688.865L27.9924 683.619C34.7621 682.01 40.6671 683.069 45.7071 686.797C50.7472 690.524 54.0476 695.671 55.6083 702.238C57.1593 708.765 56.4331 714.719 53.4294 720.101C50.4161 725.442 45.6462 728.889 39.1196 730.44ZM78.373 703.959L82.2314 720.194L65.388 724.197L54.2607 677.376L81.3196 670.945C86.5489 669.703 91.0017 670.058 94.6778 672.011C98.3444 673.923 100.751 677.291 101.897 682.115C103.535 689.006 101.78 694.327 96.6329 698.077L110.263 713.532L91.5348 717.983L79.7715 703.626L78.373 703.959ZM73.922 685.23L75.555 692.101L82.0005 690.57C83.9463 690.107 84.6494 688.741 84.1099 686.471C83.5608 684.16 82.3133 683.236 80.3675 683.699L73.922 685.23ZM133.282 689.56L126.489 676.656L126.715 691.121L133.282 689.56ZM139.383 700.637L126.735 703.643L126.742 709.616L111.783 713.171L115.006 662.939L134.282 658.358L159.76 701.769L142.308 705.916L139.383 700.637ZM176.381 660.88C172.368 661.834 171.276 666.162 173.107 673.864C174.937 681.566 177.9 684.931 181.994 683.958C184.953 683.255 186.532 681.338 186.73 678.207L183.386 679.002L181.16 669.638L201.53 664.797L207.614 690.396L194.541 693.503L193.311 691.033C191.946 693.756 188.689 695.729 183.54 696.952C177.095 698.484 171.243 697.648 165.984 694.444C160.767 691.23 157.223 685.691 155.354 677.826C153.476 669.921 154.407 663.297 158.148 657.954C161.889 652.611 166.678 649.246 172.515 647.859C178.393 646.462 183.702 646.635 188.442 648.378C193.213 650.071 196.739 653.194 199.02 657.748L183.756 665.423C181.88 661.672 179.462 660.148 176.502 660.851C176.502 660.851 176.462 660.861 176.381 660.88ZM226.7 648.793C225.861 645.267 226.892 641.852 229.79 638.551C232.679 635.209 237.063 632.84 242.941 631.443C253.115 629.025 260.723 630.579 265.762 636.105L254.2 644.763C252.865 643.11 250.313 642.732 246.543 643.628C243.867 644.264 242.761 645.554 243.223 647.5C243.676 649.405 244.875 650.127 246.821 649.664L271.387 643.826L274.191 655.623L271.393 656.287L276.105 676.11L261.146 679.665L259.708 676.859C257.712 679.09 255.396 680.518 252.761 681.144C246.923 682.531 242.04 682.257 238.111 680.322C234.173 678.345 231.688 675.189 230.657 670.851C229.424 665.662 230.715 661.544 234.53 658.496C230.427 656.73 227.817 653.496 226.7 648.793ZM247.426 665.453C247.994 667.844 249.763 668.709 252.732 668.046C254.029 667.738 255.161 667.276 256.128 666.661L254.611 660.276L249.625 661.461C247.638 661.933 246.905 663.264 247.426 665.453ZM43.3846 771.632L48.876 794.739L50.3354 794.392C52.8892 793.785 54.6309 792.193 55.5604 789.617C56.5304 787.031 56.5819 783.914 55.7148 780.265C54.8381 776.576 53.2757 774.057 51.0276 772.707C48.8105 771.306 46.7492 770.833 44.844 771.286L43.3846 771.632ZM56.9233 805.353L34.8506 810.599L23.7233 763.778L45.796 758.532C52.5658 756.923 58.4707 757.983 63.5108 761.71C68.5508 765.437 71.8512 770.585 73.4119 777.152C74.963 783.678 74.2367 789.632 71.2331 795.014C68.2198 800.356 63.4499 803.802 56.9233 805.353ZM96.1766 778.872L100.035 795.107L83.1917 799.11L72.0644 752.289L99.1232 745.859C104.353 744.616 108.805 744.971 112.481 746.924C116.148 748.836 118.555 752.205 119.701 757.029C121.339 763.92 119.584 769.241 114.437 772.991L128.067 788.446L109.338 792.896L97.5752 778.54L96.1766 778.872ZM91.7257 760.144L93.3587 767.015L99.8041 765.483C101.75 765.021 102.453 763.654 101.914 761.384C101.364 759.074 100.117 758.15 98.1712 758.612L91.7257 760.144ZM150.909 770.49C155.056 769.376 156.223 765.009 154.412 757.388C152.601 749.766 149.648 746.442 145.554 747.415C141.5 748.379 140.384 752.691 142.204 760.353C144.025 768.015 146.927 771.394 150.909 770.49ZM126.759 744.559C130.052 739.493 135.286 736.108 142.461 734.403C149.636 732.698 155.834 733.366 161.054 736.408C166.274 739.451 169.842 745.005 171.759 753.072C173.667 761.099 172.998 767.746 169.753 773.014C166.539 778.232 161.243 781.717 153.866 783.471C146.488 785.224 140.241 784.439 135.126 781.115C130.041 777.741 126.555 772.081 124.666 764.136C122.768 756.15 123.466 749.624 126.759 744.559ZM190.354 736.704L192.29 744.852L198.796 743.306C200.702 742.853 201.332 741.269 200.686 738.553C200.041 735.837 198.745 734.71 196.799 735.172L190.354 736.704ZM195.094 756.649L198.663 771.668L181.82 775.671L170.692 728.85L197.751 722.419C202.981 721.176 207.457 721.633 211.182 723.788C214.896 725.904 217.327 729.373 218.473 734.197C219.62 739.021 219.04 743.249 216.734 746.88C214.428 750.512 210.62 752.959 205.309 754.221L195.094 756.649Z" fill="#FFE337"/>
<path d="M276.314 740.942L269.706 763.755L271.147 764.172C273.668 764.902 275.968 764.375 278.047 762.592C280.165 760.819 281.746 758.132 282.789 754.53C283.844 750.888 283.726 747.926 282.435 745.643C281.196 743.332 279.636 741.904 277.755 741.36L276.314 740.942ZM271.478 776.956L249.687 770.644L263.075 724.419L284.867 730.731C291.551 732.667 296.167 736.498 298.716 742.225C301.265 747.952 301.601 754.057 299.723 760.541C297.857 766.985 294.291 771.808 289.025 775.011C283.771 778.174 277.922 778.823 271.478 776.956ZM321.394 778.726C325.551 779.799 328.72 776.574 330.899 769.05C333.078 761.526 332.147 757.179 328.104 756.008C324.102 754.849 321.006 758.051 318.815 765.615C316.624 773.179 317.484 777.55 321.394 778.726ZM313.157 744.261C318.519 741.476 324.742 741.109 331.825 743.161C338.909 745.213 343.973 748.848 347.016 754.068C350.059 759.287 350.427 765.879 348.12 773.843C345.825 781.767 341.968 787.222 336.548 790.207C331.181 793.164 324.855 793.587 317.571 791.478C310.287 789.368 305.238 785.607 302.425 780.194C299.663 774.752 299.418 768.109 301.69 760.265C303.973 752.381 307.796 747.046 313.157 744.261ZM388.063 760.621L402.171 764.707L388.782 810.932L372.213 806.133L365.331 783.839L359.906 802.569L345.739 798.465L359.127 752.24L375.756 757.057L382.638 779.351L388.063 760.621ZM414.681 771.592C413.897 772.92 412.975 774.341 411.914 775.855C410.854 777.369 409.732 778.865 408.548 780.344C407.418 781.793 406.311 783.161 405.228 784.446L401.232 783.289C401.852 782.224 402.495 781.078 403.161 779.85C403.869 778.633 404.536 777.405 405.161 776.165C405.84 774.895 406.466 773.655 407.039 772.444C407.652 771.245 408.196 770.136 408.668 769.118L414.447 770.792L414.681 771.592ZM459.982 781.452L456.592 793.158L443.925 789.489L433.927 824.008L417.358 819.209L427.356 784.69L414.689 781.021L418.079 769.315L459.982 781.452ZM273.704 828.355L270.314 840.061L249.362 833.993L244.894 849.421L228.265 844.605L241.653 798.38L281.035 809.786L277.644 821.492L254.892 814.902L252.753 822.286L273.704 828.355ZM297.331 851.921C301.488 852.995 304.656 849.769 306.835 842.245C309.015 834.721 308.083 830.374 304.041 829.203C300.039 828.044 296.942 831.246 294.752 838.81C292.561 846.375 293.42 850.745 297.331 851.921ZM289.094 817.456C294.456 814.671 300.678 814.304 307.762 816.356C314.846 818.408 319.909 822.043 322.953 827.263C325.996 832.482 326.364 839.074 324.057 847.038C321.762 854.963 317.904 860.417 312.485 863.402C307.117 866.359 300.791 866.783 293.507 864.673C286.223 862.563 281.175 858.802 278.361 853.389C275.599 847.947 275.354 841.304 277.627 833.46C279.91 825.576 283.733 820.241 289.094 817.456ZM342.947 860.448L338.304 876.477L321.675 871.66L335.064 825.435L361.779 833.173C366.941 834.668 370.641 837.171 372.878 840.682C375.126 844.153 375.56 848.27 374.181 853.032C372.21 859.836 368.061 863.601 361.734 864.328L365.979 884.493L347.489 879.137L344.328 860.848L342.947 860.448ZM348.302 841.958L346.338 848.742L352.701 850.585C354.622 851.141 355.907 850.299 356.556 848.058C357.217 845.776 356.587 844.357 354.666 843.801L348.302 841.958ZM401.611 857.398C397.649 856.251 394.567 859.479 392.364 867.083C390.162 874.687 391.082 879.075 395.124 880.246C398.046 881.092 400.364 880.202 402.079 877.575L398.777 876.619L401.455 867.374L421.566 873.199L414.246 898.472L401.339 894.734L401.486 891.979C398.956 893.675 395.149 893.787 390.067 892.315C383.703 890.472 379.023 886.861 376.026 881.481C373.07 876.113 372.716 869.547 374.965 861.783C377.225 853.979 381.299 848.674 387.187 845.868C393.075 843.062 398.901 842.493 404.664 844.163C410.467 845.844 415.002 848.61 418.267 852.462C421.584 856.286 423.114 860.742 422.855 865.829L405.791 864.986C406.006 860.797 404.653 858.279 401.731 857.433C401.731 857.433 401.691 857.422 401.611 857.398ZM465.13 881.847L461.756 893.494L440.805 887.425L439.188 893.008L462.841 899.859L459.45 911.565L419.168 899.898L432.557 853.673L471.938 865.08L468.548 876.786L445.795 870.196L444.178 875.779L465.13 881.847ZM519.184 878.764L515.793 890.47L503.127 886.801L493.128 921.32L476.559 916.521L486.558 882.002L473.891 878.333L477.281 866.627L519.184 878.764Z" fill="white"/>
<path d="M281.313 730.942L274.706 753.755L276.147 754.172C278.668 754.902 280.968 754.375 283.046 752.592C285.165 750.819 286.746 748.132 287.789 744.53C288.844 740.888 288.726 737.926 287.435 735.643C286.195 733.332 284.635 731.904 282.754 731.36L281.313 730.942ZM276.478 766.956L254.686 760.644L268.075 714.419L289.867 720.731C296.551 722.667 301.167 726.498 303.716 732.225C306.265 737.952 306.601 744.057 304.723 750.541C302.856 756.985 299.29 761.808 294.025 765.011C288.771 768.174 282.922 768.823 276.478 766.956ZM326.394 768.726C330.551 769.799 333.719 766.574 335.899 759.05C338.078 751.526 337.146 747.179 333.104 746.008C329.102 744.849 326.006 748.051 323.815 755.615C321.624 763.179 322.484 767.55 326.394 768.726ZM318.157 734.261C323.519 731.476 329.741 731.109 336.825 733.161C343.909 735.213 348.973 738.848 352.016 744.068C355.059 749.287 355.427 755.879 353.12 763.843C350.825 771.767 346.968 777.222 341.548 780.207C336.18 783.164 329.854 783.587 322.57 781.478C315.286 779.368 310.238 775.607 307.424 770.194C304.662 764.752 304.418 758.109 306.69 750.265C308.973 742.381 312.796 737.046 318.157 734.261ZM393.063 750.621L407.171 754.707L393.782 800.932L377.213 796.133L370.331 773.839L364.906 792.569L350.739 788.465L364.127 742.24L380.756 747.057L387.638 769.351L393.063 750.621ZM419.681 761.592C418.897 762.92 417.974 764.341 416.914 765.855C415.853 767.369 414.732 768.865 413.548 770.344C412.418 771.793 411.311 773.161 410.228 774.446L406.232 773.289C406.851 772.224 407.494 771.078 408.161 769.85C408.869 768.633 409.535 767.405 410.161 766.165C410.84 764.895 411.465 763.655 412.038 762.444C412.652 761.245 413.195 760.136 413.668 759.118L419.446 760.792L419.681 761.592ZM464.982 771.452L461.591 783.158L448.924 779.489L438.926 814.008L422.357 809.209L432.355 774.69L419.689 771.021L423.079 759.315L464.982 771.452ZM278.704 818.355L275.314 830.061L254.362 823.993L249.894 839.421L233.264 834.605L246.653 788.38L286.035 799.786L282.644 811.492L259.892 804.902L257.753 812.286L278.704 818.355ZM302.331 841.921C306.488 842.995 309.656 839.769 311.835 832.245C314.015 824.721 313.083 820.374 309.041 819.203C305.039 818.044 301.942 821.246 299.751 828.81C297.56 836.375 298.42 840.745 302.331 841.921ZM294.094 807.456C299.455 804.671 305.678 804.304 312.762 806.356C319.846 808.408 324.909 812.043 327.952 817.263C330.995 822.482 331.363 829.074 329.057 837.038C326.761 844.963 322.904 850.417 317.485 853.402C312.117 856.359 305.791 856.783 298.507 854.673C291.223 852.563 286.174 848.802 283.361 843.389C280.599 837.947 280.354 831.304 282.626 823.46C284.91 815.576 288.732 810.241 294.094 807.456ZM347.947 850.448L343.304 866.477L326.675 861.66L340.064 815.435L366.778 823.173C371.941 824.668 375.641 827.171 377.877 830.682C380.126 834.153 380.56 838.27 379.18 843.032C377.21 849.836 373.061 853.601 366.734 854.328L370.979 874.493L352.489 869.137L349.328 850.848L347.947 850.448ZM353.302 831.958L351.337 838.742L357.701 840.585C359.622 841.141 360.907 840.299 361.556 838.058C362.217 835.776 361.587 834.357 359.666 833.801L353.302 831.958ZM406.611 847.398C402.649 846.251 399.567 849.479 397.364 857.083C395.162 864.687 396.082 869.075 400.124 870.246C403.045 871.092 405.364 870.202 407.079 867.575L403.777 866.619L406.455 857.374L426.566 863.199L419.245 888.472L406.338 884.734L406.486 881.979C403.956 883.675 400.149 883.787 395.066 882.315C388.703 880.472 384.023 876.861 381.026 871.481C378.069 866.113 377.715 859.547 379.964 851.783C382.225 843.979 386.299 838.674 392.187 835.868C398.075 833.062 403.901 832.493 409.664 834.163C415.467 835.844 420.001 838.61 423.267 842.462C426.584 846.286 428.113 850.742 427.854 855.829L410.79 854.986C411.006 850.797 409.653 848.279 406.731 847.433C406.731 847.433 406.691 847.422 406.611 847.398ZM470.129 871.847L466.756 883.494L445.805 877.425L444.188 883.008L467.841 889.859L464.45 901.565L424.168 889.898L437.557 843.673L476.938 855.08L473.548 866.786L450.795 860.196L449.178 865.779L470.129 871.847ZM524.184 868.764L520.793 880.47L508.126 876.801L498.128 911.32L481.559 906.521L491.557 872.002L478.89 868.333L482.281 856.627L524.184 868.764Z" fill="#0C2958"/>
<path d="M72.5816 913.409L80.0214 923.062L69.5761 931.112L91.5139 959.577L77.8509 970.107L55.9131 941.642L45.4678 949.693L38.028 940.039L72.5816 913.409ZM115.757 925.506C119.079 922.787 118.35 918.325 113.568 912.121C108.786 905.916 104.729 904.099 101.396 906.668C98.0954 909.211 98.8489 913.602 103.656 919.839C108.463 926.077 112.497 927.965 115.757 925.506ZM83.0862 911.783C84.0079 905.812 87.3895 900.576 93.2309 896.074C99.0724 891.572 104.997 889.636 111.006 890.265C117.015 890.895 122.55 894.493 127.612 901.061C132.648 907.595 134.769 913.93 133.974 920.066C133.187 926.144 129.79 931.497 123.784 936.126C117.778 940.756 111.76 942.606 105.73 941.676C99.7085 940.689 94.2049 936.96 89.2196 930.492C84.2089 923.99 82.1644 917.754 83.0862 911.783ZM156.059 864.459L170.557 883.271L171.745 882.355C173.824 880.753 174.759 878.586 174.548 875.855C174.37 873.099 173.136 870.236 170.847 867.266C168.533 864.262 166.073 862.607 163.469 862.299C160.872 861.933 158.798 862.348 157.247 863.544L156.059 864.459ZM182.254 889.643L164.284 903.492L134.907 865.374L152.877 851.525C158.388 847.277 164.207 845.817 170.333 847.146C176.459 848.474 181.583 851.811 185.703 857.157C189.798 862.471 191.582 868.198 191.054 874.339C190.501 880.446 187.568 885.548 182.254 889.643ZM213.18 850.421C216.503 847.702 215.773 843.241 210.991 837.036C206.21 830.832 202.152 829.014 198.819 831.583C195.519 834.127 196.272 838.517 201.079 844.754C205.887 850.992 209.92 852.881 213.18 850.421ZM180.509 836.699C181.431 830.728 184.813 825.491 190.654 820.989C196.496 816.487 202.421 814.551 208.43 815.18C214.438 815.81 219.973 819.409 225.035 825.976C230.071 832.511 232.192 838.846 231.397 844.982C230.61 851.059 227.214 856.413 221.207 861.042C215.201 865.671 209.183 867.521 203.154 866.592C197.132 865.604 191.628 861.876 186.643 855.407C181.632 848.906 179.588 842.67 180.509 836.699Z" fill="#F4F4F4"/>
<path d="M65.6773 909.409L73.1171 919.062L62.6718 927.112L84.6096 955.577L70.9466 966.107L49.0088 937.642L38.5635 945.693L31.1237 936.039L65.6773 909.409ZM108.852 921.506C112.175 918.787 111.446 914.325 106.664 908.121C101.882 901.916 97.8246 900.099 94.4913 902.668C91.1911 905.211 91.9446 909.602 96.7518 915.839C101.559 922.077 105.593 923.965 108.852 921.506ZM76.1819 907.783C77.1036 901.812 80.4852 896.576 86.3266 892.074C92.1681 887.572 98.0932 885.636 104.102 886.265C110.111 886.895 115.646 890.493 120.708 897.061C125.744 903.595 127.864 909.93 127.07 916.066C126.283 922.144 122.886 927.497 116.88 932.126C110.873 936.756 104.855 938.606 98.826 937.676C92.8042 936.689 87.3006 932.96 82.3153 926.492C77.3046 919.99 75.2601 913.754 76.1819 907.783ZM149.155 860.459L163.653 879.271L164.841 878.355C166.92 876.753 167.854 874.586 167.643 871.855C167.466 869.099 166.232 866.236 163.943 863.266C161.628 860.262 159.169 858.607 156.565 858.299C153.968 857.933 151.894 858.348 150.343 859.544L149.155 860.459ZM175.35 885.643L157.38 899.492L128.002 861.374L145.972 847.525C151.484 843.277 157.303 841.817 163.429 843.146C169.555 844.474 174.679 847.811 178.799 853.157C182.894 858.471 184.678 864.198 184.15 870.339C183.597 876.446 180.663 881.548 175.35 885.643ZM206.275 846.421C209.598 843.702 208.869 839.241 204.087 833.036C199.305 826.832 195.248 825.014 191.915 827.583C188.614 830.127 189.368 834.517 194.175 840.754C198.982 846.992 203.016 848.881 206.275 846.421ZM173.605 832.699C174.527 826.728 177.908 821.491 183.75 816.989C189.591 812.487 195.516 810.551 201.525 811.18C207.534 811.81 213.069 815.409 218.131 821.976C223.167 828.511 225.288 834.846 224.493 840.982C223.706 847.059 220.309 852.413 214.303 857.042C208.297 861.671 202.279 863.521 196.249 862.592C190.227 861.604 184.724 857.876 179.739 851.407C174.728 844.906 172.683 838.67 173.605 832.699Z" fill="#FF4D08"/>
<path d="M357.563 698.751L372.061 717.563L373.249 716.647C375.329 715.045 376.263 712.878 376.052 710.147C375.874 707.391 374.641 704.528 372.351 701.558C370.037 698.554 367.577 696.899 364.973 696.592C362.376 696.226 360.303 696.64 358.751 697.836L357.563 698.751ZM383.759 723.935L365.789 737.784L336.411 699.667L354.381 685.817C359.892 681.569 365.711 680.11 371.837 681.438C377.964 682.766 383.087 686.103 387.208 691.449C391.303 696.763 393.086 702.49 392.558 708.631C392.005 714.738 389.072 719.84 383.759 723.935ZM412.373 679.156L400.88 670.181L407.027 683.276L412.373 679.156ZM422.486 686.749L412.19 694.684L414.649 700.128L402.471 709.513L384.776 662.391L400.469 650.297L441.529 679.411L427.322 690.361L422.486 686.749ZM445.022 615.959L452.462 625.613L442.017 633.663L463.955 662.127L450.291 672.658L428.354 644.193L417.908 652.243L410.469 642.59L445.022 615.959ZM491.257 603.052L498.658 612.655L481.382 625.971L484.93 630.575L504.434 615.542L511.874 625.196L478.657 650.796L449.279 612.678L481.754 587.65L489.194 597.303L470.432 611.763L473.98 616.367L491.257 603.052Z" fill="white"/>
<path d="M348.563 692.751L363.061 711.563L364.249 710.647C366.328 709.045 367.263 706.878 367.052 704.147C366.874 701.391 365.64 698.528 363.351 695.558C361.037 692.554 358.577 690.899 355.973 690.592C353.376 690.226 351.302 690.64 349.751 691.836L348.563 692.751ZM374.758 717.935L356.788 731.784L327.411 693.667L345.381 679.817C350.892 675.569 356.711 674.11 362.837 675.438C368.963 676.766 374.087 680.103 378.207 685.449C382.302 690.763 384.086 696.49 383.558 702.631C383.005 708.738 380.072 713.84 374.758 717.935ZM403.373 673.156L391.879 664.181L398.027 677.276L403.373 673.156ZM413.486 680.749L403.189 688.684L405.649 694.128L393.471 703.513L375.776 656.391L391.469 644.297L432.529 673.411L418.322 684.361L413.486 680.749ZM436.022 609.959L443.462 619.613L433.016 627.663L454.954 656.127L441.291 666.658L419.353 638.193L408.908 646.243L401.468 636.59L436.022 609.959ZM482.257 597.052L489.658 606.655L472.381 619.971L475.93 624.575L495.434 609.542L502.874 619.196L469.657 644.796L440.279 606.678L472.754 581.65L480.193 591.303L461.432 605.763L464.98 610.367L482.257 597.052Z" fill="#00792C"/>
<path d="M280.983 939.564L261.171 939.484L249.802 891.313L267.739 891.385L272.882 918.093L278.614 891.429L292.051 891.483L297.569 918.192L302.926 891.526L320.863 891.598L309.17 939.677L289.296 939.597L285.254 918.706L280.983 939.564ZM364.416 909.773L364.367 921.898L342.555 921.811L342.532 927.623L367.156 927.722L367.107 939.909L325.17 939.741L325.363 891.616L366.363 891.781L366.314 903.968L342.627 903.873L342.604 909.686L364.416 909.773ZM412.603 909.967L412.554 922.092L390.742 922.004L390.719 927.816L415.343 927.915L415.295 940.103L373.357 939.934L373.551 891.81L414.55 891.974L414.501 904.162L390.814 904.067L390.791 909.879L412.603 909.967ZM421.738 892.003L439.05 892.073L438.978 910.073L439.978 910.077L451.862 892.124L467.862 892.188L453.34 913.255L467.669 940.313L448.419 940.236L439.742 922.201L438.929 922.197L438.857 940.197L421.544 940.128L421.738 892.003Z" fill="white"/>
<path d="M281.477 954.129L261.665 954.05L250.295 905.879L268.233 905.951L273.376 932.659L279.108 905.995L292.545 906.049L298.063 932.758L303.42 906.092L321.357 906.164L309.664 954.243L289.789 954.163L285.748 933.271L281.477 954.129ZM364.91 924.339L364.861 936.464L343.049 936.376L343.025 942.189L367.65 942.288L367.601 954.475L325.664 954.307L325.857 906.182L366.857 906.347L366.808 918.534L343.121 918.439L343.097 924.252L364.91 924.339ZM413.097 924.533L413.048 936.657L391.236 936.57L391.213 942.382L415.837 942.481L415.788 954.669L373.851 954.5L374.044 906.376L415.044 906.54L414.995 918.728L391.308 918.633L391.285 924.445L413.097 924.533ZM422.232 906.569L439.544 906.639L439.472 924.638L440.472 924.642L452.356 906.69L468.356 906.754L453.834 927.821L468.163 954.879L448.913 954.802L440.235 936.767L439.423 936.763L439.351 954.763L422.038 954.694L422.232 906.569Z" fill="#EA66FF"/>
<path d="M45.527 827.712L45.5574 839.899L32.3699 839.932L32.4596 875.87L15.2097 875.913L15.12 839.975L1.93253 840.008L1.90213 827.821L45.527 827.712ZM69.9146 857.776L66.2543 843.66L63.1646 857.793L69.9146 857.776ZM73.32 869.955L60.32 869.988L58.9595 875.804L43.5846 875.842L58.2145 827.68L78.0269 827.631L92.8969 875.719L74.9595 875.764L73.32 869.955ZM114.619 864.352C117.202 864.346 118.492 863.551 118.488 861.967C118.484 860.384 117.502 859.282 115.542 858.662L109.474 856.615C99.9665 853.514 95.2053 849.005 95.1905 843.088C95.1765 837.463 97.1036 833.312 100.972 830.636C104.84 827.918 110.045 826.551 116.587 826.535C125.17 826.513 131.617 830.122 135.926 837.361L121.563 842.022C120.267 840.192 118.577 839.28 116.494 839.285C114.452 839.29 113.433 840.022 113.437 841.48C113.44 842.772 114.609 843.79 116.944 844.534L124.263 846.953C132.978 849.848 137.343 854.191 137.358 859.983C137.372 865.775 135.466 870.071 131.64 872.872C127.855 875.673 122.755 877.082 116.338 877.098C105.421 877.125 97.6403 873.082 92.9951 864.969L106.231 859.186C107.656 862.64 110.452 864.363 114.619 864.352ZM141.839 827.472L159.152 827.428L159.197 845.428L160.197 845.426L171.964 827.396L187.964 827.357L173.579 848.517L188.084 875.481L168.834 875.529L160.039 857.551L159.227 857.553L159.272 875.553L141.959 875.596L141.839 827.472ZM208.993 864.117C211.577 864.11 212.866 863.315 212.862 861.732C212.858 860.149 211.877 859.047 209.917 858.427L203.849 856.379C194.341 853.278 189.58 848.769 189.565 842.853C189.551 837.228 191.478 833.077 195.347 830.401C199.215 827.683 204.42 826.315 210.961 826.299C219.545 826.278 225.991 829.887 230.301 837.126L215.938 841.787C214.641 839.957 212.952 839.044 210.868 839.049C208.827 839.055 207.808 839.786 207.811 841.245C207.814 842.536 208.984 843.554 211.319 844.298L218.637 846.718C227.353 849.612 231.718 853.956 231.732 859.747C231.747 865.539 229.841 869.836 226.015 872.637C222.23 875.438 217.129 876.846 210.713 876.862C199.796 876.89 192.015 872.847 187.37 864.733L200.605 858.95C202.031 862.405 204.827 864.127 208.993 864.117Z" fill="white"/>
<path d="M45.527 818.712L45.5574 830.899L32.3699 830.932L32.4596 866.87L15.2097 866.913L15.12 830.975L1.93253 831.008L1.90213 818.821L45.527 818.712ZM69.9146 848.776L66.2543 834.66L63.1646 848.793L69.9146 848.776ZM73.32 860.955L60.32 860.988L58.9595 866.804L43.5846 866.842L58.2145 818.68L78.0269 818.631L92.8969 866.719L74.9595 866.764L73.32 860.955ZM114.619 855.352C117.202 855.346 118.492 854.551 118.488 852.967C118.484 851.384 117.502 850.282 115.542 849.662L109.474 847.615C99.9665 844.514 95.2053 840.005 95.1905 834.088C95.1765 828.463 97.1036 824.312 100.972 821.636C104.84 818.918 110.045 817.551 116.587 817.535C125.17 817.513 131.617 821.122 135.926 828.361L121.563 833.022C120.267 831.192 118.577 830.28 116.494 830.285C114.452 830.29 113.433 831.022 113.437 832.48C113.44 833.772 114.609 834.79 116.944 835.534L124.263 837.953C132.978 840.848 137.343 845.191 137.358 850.983C137.372 856.775 135.466 861.071 131.64 863.872C127.855 866.673 122.755 868.082 116.338 868.098C105.421 868.125 97.6403 864.082 92.9951 855.969L106.231 850.186C107.656 853.64 110.452 855.363 114.619 855.352ZM141.839 818.472L159.152 818.428L159.197 836.428L160.197 836.426L171.964 818.396L187.964 818.357L173.579 839.517L188.084 866.481L168.834 866.529L160.039 848.551L159.227 848.553L159.272 866.553L141.959 866.596L141.839 818.472ZM208.993 855.117C211.577 855.11 212.866 854.315 212.862 852.732C212.858 851.149 211.877 850.047 209.917 849.427L203.849 847.379C194.341 844.278 189.58 839.769 189.565 833.853C189.551 828.228 191.478 824.077 195.347 821.401C199.215 818.683 204.42 817.315 210.961 817.299C219.545 817.278 225.991 820.887 230.301 828.126L215.938 832.787C214.641 830.957 212.952 830.044 210.868 830.049C208.827 830.055 207.808 830.786 207.811 832.245C207.814 833.536 208.984 834.554 211.319 835.298L218.637 837.718C227.353 840.612 231.718 844.956 231.732 850.747C231.747 856.539 229.841 860.836 226.015 863.637C222.23 866.438 217.129 867.846 210.713 867.862C199.796 867.89 192.015 863.847 187.37 855.733L200.605 849.95C202.031 853.405 204.827 855.127 208.993 855.117Z" fill="#FFC6B9"/>
</svg>
