<svg width="385" height="143" viewBox="0 0 385 143" fill="none" xmlns="http://www.w3.org/2000/svg">
<path d="M45.5 15.2524V27.4399H32.3125V63.3774H15.0625V27.4399H1.875V15.2524H45.5ZM69.8125 45.3774L66.1875 31.2524L63.0625 45.3774H69.8125ZM73.1875 57.5649H60.1875L58.8125 63.3774H43.4375L58.1875 15.2524H78L92.75 63.3774H74.8125L73.1875 57.5649ZM114.5 52.0649C117.083 52.0649 118.375 51.2733 118.375 49.6899C118.375 48.1066 117.396 47.0024 115.438 46.3774L109.375 44.3149C99.875 41.1899 95.125 36.6691 95.125 30.7524C95.125 25.1274 97.0625 20.9816 100.938 18.3149C104.812 15.6066 110.021 14.2524 116.562 14.2524C125.146 14.2524 131.583 17.8774 135.875 25.1274L121.5 29.7524C120.208 27.9191 118.521 27.0024 116.438 27.0024C114.396 27.0024 113.375 27.7316 113.375 29.1899C113.375 30.4816 114.542 31.5024 116.875 32.2524L124.188 34.6899C132.896 37.6066 137.25 41.9608 137.25 47.7524C137.25 53.5441 135.333 57.8358 131.5 60.6274C127.708 63.4191 122.604 64.8149 116.188 64.8149C105.271 64.8149 97.5 60.7524 92.875 52.6274L106.125 46.8774C107.542 50.3358 110.333 52.0649 114.5 52.0649ZM141.812 15.2524H159.125V33.2524H160.125L171.938 15.2524H187.938L173.5 36.3774L187.938 63.3774H168.688L159.938 45.3774H159.125V63.3774H141.812V15.2524ZM210.5 92.2524H227.812V128.19H250.812V140.377H210.5V92.2524ZM256.062 92.2524H273.375V140.377H256.062V92.2524ZM298.25 129.065C300.833 129.065 302.125 128.273 302.125 126.69C302.125 125.107 301.146 124.002 299.188 123.377L293.125 121.315C283.625 118.19 278.875 113.669 278.875 107.752C278.875 102.127 280.812 97.9816 284.688 95.3149C288.562 92.6066 293.771 91.2524 300.312 91.2524C308.896 91.2524 315.333 94.8774 319.625 102.127L305.25 106.752C303.958 104.919 302.271 104.002 300.188 104.002C298.146 104.002 297.125 104.732 297.125 106.19C297.125 107.482 298.292 108.502 300.625 109.252L307.938 111.69C316.646 114.607 321 118.961 321 124.752C321 130.544 319.083 134.836 315.25 137.627C311.458 140.419 306.354 141.815 299.938 141.815C289.021 141.815 281.25 137.752 276.625 129.627L289.875 123.877C291.292 127.336 294.083 129.065 298.25 129.065ZM367.562 92.2524V104.44H354.375V140.377H337.125V104.44H323.938V92.2524H367.562Z" fill="white"/>
<path d="M49.5 10.875V23.0625H36.3125V59H19.0625V23.0625H5.875V10.875H49.5ZM73.8125 41L70.1875 26.875L67.0625 41H73.8125ZM77.1875 53.1875H64.1875L62.8125 59H47.4375L62.1875 10.875H82L96.75 59H78.8125L77.1875 53.1875ZM118.5 47.6875C121.083 47.6875 122.375 46.8958 122.375 45.3125C122.375 43.7292 121.396 42.625 119.438 42L113.375 39.9375C103.875 36.8125 99.125 32.2917 99.125 26.375C99.125 20.75 101.062 16.6042 104.938 13.9375C108.812 11.2292 114.021 9.875 120.562 9.875C129.146 9.875 135.583 13.5 139.875 20.75L125.5 25.375C124.208 23.5417 122.521 22.625 120.438 22.625C118.396 22.625 117.375 23.3542 117.375 24.8125C117.375 26.1042 118.542 27.125 120.875 27.875L128.188 30.3125C136.896 33.2292 141.25 37.5833 141.25 43.375C141.25 49.1667 139.333 53.4583 135.5 56.25C131.708 59.0417 126.604 60.4375 120.188 60.4375C109.271 60.4375 101.5 56.375 96.875 48.25L110.125 42.5C111.542 45.9583 114.333 47.6875 118.5 47.6875ZM145.812 10.875H163.125V28.875H164.125L175.938 10.875H191.938L177.5 32L191.938 59H172.688L163.938 41H163.125V59H145.812V10.875ZM214.5 87.875H231.812V123.812H254.812V136H214.5V87.875ZM260.062 87.875H277.375V136H260.062V87.875ZM302.25 124.688C304.833 124.688 306.125 123.896 306.125 122.312C306.125 120.729 305.146 119.625 303.188 119L297.125 116.938C287.625 113.812 282.875 109.292 282.875 103.375C282.875 97.75 284.812 93.6042 288.688 90.9375C292.562 88.2292 297.771 86.875 304.312 86.875C312.896 86.875 319.333 90.5 323.625 97.75L309.25 102.375C307.958 100.542 306.271 99.625 304.188 99.625C302.146 99.625 301.125 100.354 301.125 101.812C301.125 103.104 302.292 104.125 304.625 104.875L311.938 107.312C320.646 110.229 325 114.583 325 120.375C325 126.167 323.083 130.458 319.25 133.25C315.458 136.042 310.354 137.438 303.938 137.438C293.021 137.438 285.25 133.375 280.625 125.25L293.875 119.5C295.292 122.958 298.083 124.688 302.25 124.688ZM371.562 87.875V100.062H358.375V136H341.125V100.062H327.938V87.875H371.562Z" fill="#FF0000"/>
</svg>
