<svg width="276" height="180" viewBox="0 0 276 180" fill="none" xmlns="http://www.w3.org/2000/svg">
<path opacity="0.54" d="M7.18084 178.793H0V123.625H32.6124V130.403H7.18166V148.515H30.1201V155.137H7.18166V178.793L7.18084 178.793ZM46.1146 131.565C44.4028 133.262 41.7147 133.529 39.6951 132.202C37.6754 130.874 36.8871 128.323 37.8125 126.108C38.738 123.894 41.1189 122.633 43.4988 123.098C45.8788 123.563 47.5944 125.624 47.596 128.019C47.6191 129.354 47.0806 130.637 46.1087 131.565H46.1146ZM46.1146 178.793H38.9337V141.039H46.1146V178.793ZM61.8721 178.793H54.6913V141.039H61.5552V147.203H61.8661C62.6952 145.031 64.2875 143.226 66.3526 142.117C68.3247 140.867 70.6055 140.174 72.9482 140.112C74.7874 140.061 76.6179 140.376 78.3308 141.039L75.5999 147.661C74.3683 147.256 73.0741 147.073 71.7778 147.119C69.1447 147.132 66.6387 148.237 64.8714 150.165C62.8679 152.195 61.8662 154.854 61.8662 158.141L61.8721 178.793ZM98.008 179.997C92.2332 179.997 87.5394 178.097 83.9267 174.297C80.314 170.498 78.5055 165.704 78.5015 159.917C78.3954 154.707 80.2751 149.647 83.7683 145.741C87.1138 141.853 92.0627 139.671 97.2276 139.805C102.897 139.805 107.436 141.629 110.846 145.277C114.255 148.924 115.958 153.804 115.953 159.916L115.874 161.228H85.6692C85.8765 165.028 87.1646 168.038 89.5339 170.257C91.7496 172.405 94.7379 173.596 97.8417 173.568C102.991 173.568 106.475 171.41 108.296 167.097L114.697 169.716C113.4 172.701 111.26 175.254 108.534 177.071C105.669 179.022 102.16 179.997 98.0063 179.997L98.008 179.997ZM108.31 155.317C108.155 153.158 107.154 151.104 105.305 149.153C103.456 147.203 100.706 146.248 97.057 146.288C94.5259 146.244 92.0672 147.123 90.1506 148.756C88.1426 150.494 86.7376 152.81 86.1334 155.378L108.31 155.317ZM141.898 179.997C139.181 180.05 136.494 179.429 134.083 178.191C131.966 177.137 130.174 175.54 128.895 173.568H128.584V178.793H121.715V123.625H128.895V141.039L128.585 146.276H128.895C130.174 144.304 131.966 142.708 134.083 141.653C136.49 140.401 139.177 139.766 141.898 139.805C146.839 139.805 151.106 141.732 154.699 145.584C158.291 149.437 160.085 154.214 160.081 159.916C160.077 165.619 158.287 170.396 154.699 174.249C151.11 178.101 146.843 180.017 141.898 179.997ZM140.727 173.526C143.998 173.552 147.123 172.191 149.31 169.788C151.703 167.296 152.9 163.995 152.9 159.886C152.9 155.777 151.703 152.476 149.31 149.984C147.098 147.61 143.983 146.256 140.717 146.249C137.45 146.243 134.329 147.583 132.108 149.948C129.742 152.412 128.56 155.724 128.56 159.886C128.56 164.047 129.755 167.37 132.144 169.854C134.344 172.248 137.478 173.595 140.751 173.556L140.727 173.526ZM178.362 179.997C174.299 179.997 170.905 178.841 168.183 176.53C165.46 174.219 164.094 171.163 164.086 167.362C164.086 163.253 165.699 160.031 168.926 157.695C172.153 155.359 176.131 154.192 180.862 154.192C185.076 154.192 188.531 154.962 191.225 156.503V155.426C191.327 152.888 190.266 150.44 188.335 148.762C186.369 147.09 183.839 146.207 181.246 146.288C179.261 146.264 177.306 146.769 175.589 147.751C173.98 148.631 172.746 150.054 172.114 151.76L165.562 148.985C166.447 146.718 168.191 144.615 170.8 142.677C173.409 140.738 176.835 139.775 181.102 139.787C185.978 139.787 190.042 141.192 193.293 144.001C196.544 146.81 198.158 150.791 198.133 155.943V178.793H191.245V173.556H190.934C188.069 177.85 183.881 179.989 178.371 179.989L178.362 179.997ZM179.533 173.526C182.55 173.516 185.447 172.353 187.616 170.282C189.928 168.357 191.265 165.526 191.273 162.541C189.241 160.895 186.193 160.073 182.13 160.073C178.643 160.073 176.015 160.817 174.248 162.306C172.598 163.558 171.621 165.488 171.596 167.543C171.563 169.331 172.49 171.003 174.035 171.937C175.659 173.015 177.577 173.58 179.534 173.556V173.526L179.533 173.526ZM219.247 179.997C214.98 179.997 211.456 178.97 208.677 176.915C205.972 174.943 203.865 172.279 202.581 169.21L208.982 166.592C211.014 171.319 214.468 173.683 219.345 173.683C221.282 173.761 223.197 173.25 224.831 172.22C226.178 171.394 226.992 169.934 226.976 168.368C226.976 165.904 225.233 164.234 221.738 163.359L214.015 161.511C211.473 160.847 209.106 159.653 207.072 158.008C204.907 156.341 203.686 153.747 203.792 151.038C203.792 147.699 205.288 144.99 208.279 142.911C211.407 140.791 215.134 139.699 218.928 139.793C222.096 139.743 225.219 140.531 227.974 142.075C230.575 143.533 232.586 145.834 233.667 148.588L227.431 151.104C226.029 147.765 223.116 146.095 218.69 146.095C216.808 146.034 214.945 146.488 213.308 147.408C211.966 148.094 211.125 149.461 211.125 150.953C211.125 153.112 212.816 154.577 216.197 155.347L223.762 157.123C227.35 157.926 230.004 159.33 231.723 161.337C233.388 163.211 234.303 165.621 234.295 168.115C234.329 171.439 232.766 174.582 230.083 176.59C227.275 178.861 223.66 179.997 219.239 179.997L219.247 179.997ZM257.87 179.997C252.095 179.997 247.401 178.097 243.788 174.297C240.176 170.498 238.367 165.693 238.363 159.886C238.257 154.676 240.137 149.617 243.63 145.71C246.988 141.832 251.942 139.662 257.107 139.805C262.796 139.805 267.336 141.629 270.725 145.277C274.115 148.925 275.817 153.805 275.834 159.916L275.754 161.229H245.525C245.732 165.029 247.02 168.039 249.389 170.258C251.612 172.405 254.607 173.592 257.716 173.556C262.865 173.556 266.35 171.398 268.171 167.085L274.571 169.704C273.275 172.689 271.135 175.243 268.408 177.059C265.544 179.018 262.03 179.997 257.869 179.997L257.87 179.997ZM268.172 155.317C268.017 153.158 267.015 151.104 265.166 149.153C263.317 147.203 260.572 146.248 256.931 146.288C254.4 146.245 251.941 147.124 250.024 148.756C248.017 150.494 246.611 152.81 246.007 155.378L268.172 155.317Z" fill="black"/>
<path d="M99.2725 86.1073L112.477 2.05261C112.638 1.02176 113.444 0.209124 114.478 0.0343833C115.512 -0.140357 116.542 0.362368 117.036 1.2824L130.692 26.62L136.135 16.3103C136.556 15.5131 137.387 15.014 138.293 15.014C139.198 15.014 140.029 15.5131 140.451 16.3103L177.302 86.1072L99.2725 86.1073Z" fill="#FFA000"/>
<path d="M144.889 53.3652L130.686 26.6084L99.2725 86.1077L144.889 53.3652Z" fill="#F57C00"/>
<path d="M177.302 86.1071L167.189 23.8484C167.036 22.9543 166.395 22.2198 165.526 21.943C164.658 21.6662 163.707 21.8966 163.062 22.5376L99.2725 86.1062L134.569 105.798C136.785 107.029 139.485 107.029 141.701 105.798L177.302 86.1062V86.1071Z" fill="#FFCA28"/>
<path d="M167.189 23.8487C167.036 22.9546 166.395 22.2202 165.526 21.9433C164.658 21.6665 163.707 21.8969 163.062 22.5379L150.401 35.1652L140.446 16.3099C140.024 15.5128 139.193 15.0136 138.288 15.0136C137.382 15.0136 136.551 15.5128 136.129 16.3099L130.686 26.6197L117.03 1.28249C116.535 0.362208 115.504 -0.139703 114.469 0.03634C113.433 0.212383 112.63 1.02705 112.471 2.05872L99.2725 86.1074H99.23L99.2725 86.156L99.62 86.3257L163.044 23.1573C163.688 22.5128 164.641 22.2812 165.512 22.5572C166.383 22.8332 167.026 23.5706 167.177 24.4672L177.205 86.1679L177.303 86.1073L167.189 23.8487ZM99.3884 85.9922L112.477 2.65313C112.636 1.62146 113.441 0.806795 114.475 0.630751C115.51 0.454708 116.541 0.956457 117.037 1.8769L130.692 27.2145L136.135 16.9048C136.557 16.1076 137.388 15.6085 138.293 15.6085C139.199 15.6085 140.029 16.1076 140.451 16.9048L150.205 35.3592L99.3884 85.9922Z" fill="white" fill-opacity="0.2"/>
<path opacity="0.2" d="M141.701 105.205C139.485 106.436 136.785 106.436 134.569 105.205L99.3578 85.5679L99.2725 86.1077L134.569 105.793C136.785 107.025 139.485 107.025 141.701 105.793L177.302 86.1077L177.211 85.5498L141.701 105.205Z" fill="#A52714"/>
<path d="M167.088 23.8617C166.936 22.9679 166.297 22.2332 165.431 21.958C164.566 21.6828 163.618 21.9116 162.975 22.5524L150.358 35.1733L140.438 16.3268C140.018 15.53 139.19 15.031 138.288 15.031C137.385 15.031 136.557 15.53 136.137 16.3268L130.712 26.6321L117.105 1.30539C116.611 0.385516 115.583 -0.116314 114.553 0.0598108C113.522 0.235936 112.72 1.04995 112.561 2.08138L99.4089 86.0932L134.582 105.77C136.791 107.001 139.481 107.001 141.69 105.77L177.166 86.0932L167.088 23.8616V23.8617Z" fill="url(#paint0_linear_128_104)"/>
<defs>
<linearGradient id="paint0_linear_128_104" x1="96.6952" y1="18.1798" x2="193.51" y2="69.5139" gradientUnits="userSpaceOnUse">
<stop stop-color="white" stop-opacity="0.1"/>
<stop offset="0.14" stop-color="white" stop-opacity="0.08"/>
<stop offset="0.61" stop-color="white" stop-opacity="0.02"/>
<stop offset="1" stop-color="white" stop-opacity="0"/>
</linearGradient>
</defs>
</svg>
