<svg width="210" height="210" viewBox="0 0 210 210" fill="none" xmlns="http://www.w3.org/2000/svg">
<path d="M205.208 95.7081L114.26 4.78106C111.738 2.27037 108.324 0.86084 104.766 0.86084C101.207 0.86084 97.7929 2.27037 95.2707 4.78106L76.427 23.6456L100.375 47.604C103.2 46.6493 106.237 46.5054 109.14 47.1888C112.043 47.8722 114.697 49.3554 116.799 51.4703C118.902 53.5851 120.371 56.247 121.038 59.1539C121.705 62.0608 121.544 65.0964 120.573 67.9165L143.635 91.0102C147.05 89.8121 150.77 89.8117 154.185 91.0089C157.6 92.2061 160.506 94.5297 162.424 97.5976C164.343 100.666 165.161 104.295 164.743 107.889C164.325 111.484 162.696 114.829 160.125 117.375C153.885 123.625 143.812 123.625 137.562 117.375C135.342 115.152 133.826 112.326 133.201 109.247C132.577 106.168 132.873 102.974 134.052 100.062L112.448 78.5727V135.208C113.969 135.948 115.427 136.969 116.687 138.229C119.666 141.228 121.337 145.283 121.337 149.51C121.337 153.737 119.666 157.792 116.687 160.791C115.201 162.28 113.436 163.461 111.493 164.267C109.551 165.072 107.468 165.487 105.364 165.487C103.261 165.487 101.178 165.072 99.2355 164.267C97.2926 163.461 95.5277 162.28 94.0416 160.791C92.5588 159.313 91.3823 157.556 90.5796 155.622C89.7768 153.688 89.3636 151.615 89.3636 149.521C89.3636 147.427 89.7768 145.353 90.5796 143.419C91.3823 141.485 92.5588 139.728 94.0416 138.25C95.6249 136.687 97.3957 135.5 99.2916 134.719V77.5311C97.3439 76.7337 95.5736 75.5582 94.083 74.0725C92.5924 72.5869 91.4109 70.8206 90.607 68.8756C89.803 66.9307 89.3925 64.8457 89.3992 62.7411C89.4058 60.6366 89.8295 58.5542 90.6457 56.6144L67.1041 32.9581L4.7395 95.2706C-0.468831 100.521 -0.468831 109.021 4.7395 114.271L95.6874 205.198C96.9318 206.445 98.41 207.435 100.038 208.11C101.665 208.786 103.41 209.133 105.172 209.133C106.934 209.133 108.679 208.786 110.306 208.11C111.934 207.435 113.412 206.445 114.656 205.198L205.177 114.687C206.431 113.446 207.426 111.969 208.107 110.342C208.787 108.714 209.139 106.968 209.142 105.204C209.145 103.44 208.799 101.693 208.124 100.063C207.449 98.4334 206.458 96.9533 205.208 95.7081Z" fill="#F73200"/>
</svg>
