<svg width="188" height="188" viewBox="0 0 188 188" fill="none" xmlns="http://www.w3.org/2000/svg">
<path d="M0.25 0.25H187.75V187.75H0.25V0.25ZM172.385 143.031C171.021 134.479 165.448 127.292 148.927 120.583C143.177 117.885 136.792 116.021 134.875 111.688C134.167 109.104 134.063 107.708 134.521 106.177C135.698 101.135 141.677 99.625 146.365 101.021C149.417 101.958 152.229 104.302 153.99 108.063C162.063 102.781 162.063 102.781 167.698 99.2708C165.583 96 164.531 94.5729 163.125 93.1667C158.198 87.6667 151.635 84.8542 140.979 85.0938L135.479 85.7917C130.198 87.0833 125.156 89.9062 122.115 93.6458C113.208 103.729 115.781 121.302 126.563 128.583C137.219 136.552 152.823 138.302 154.812 145.802C156.687 154.948 148.021 157.875 139.448 156.823C133.125 155.406 129.604 152.25 125.74 146.385L111.448 154.594C113.083 158.333 114.958 159.979 117.771 163.26C131.365 176.969 165.354 176.271 171.448 155.406C171.667 154.708 173.323 149.906 172.031 142.521L172.385 143.031ZM102.208 86.4271H84.6458C84.6458 101.563 84.5729 116.615 84.5729 131.781C84.5729 141.406 85.0625 150.24 83.4896 152.958C80.9167 158.344 74.2604 157.656 71.25 156.698C68.1563 155.177 66.5833 153.063 64.7604 150.021C64.2708 149.208 63.9062 148.5 63.7708 148.5L49.5208 157.292C51.9063 162.219 55.3854 166.448 59.875 169.135C66.5521 173.125 75.5208 174.417 84.9167 172.313C91.0417 170.542 96.3229 166.906 99.0625 161.281C103.063 154.021 102.208 145.104 102.177 135.146C102.26 119.094 102.177 103.031 102.177 86.8646L102.208 86.4271Z" fill="#EFDE00"/>
</svg>
