<svg width="254" height="156" viewBox="0 0 254 156" fill="none" xmlns="http://www.w3.org/2000/svg">
<path d="M125.452 155.55C124.592 155.55 123.789 155.321 123.044 154.919L115.418 150.382C114.271 149.751 114.845 149.521 115.189 149.406C116.737 148.89 117.024 148.775 118.629 147.856C118.801 147.741 119.03 147.799 119.202 147.913L125.051 151.416C125.28 151.531 125.567 151.531 125.739 151.416L148.616 138.152C148.845 138.037 148.96 137.808 148.96 137.52V111.05C148.96 110.763 148.845 110.533 148.616 110.418L125.739 97.2118C125.509 97.0969 125.223 97.0969 125.051 97.2118L102.173 110.418C101.944 110.533 101.829 110.82 101.829 111.05V137.52C101.829 137.75 101.944 138.037 102.173 138.152L108.423 141.769C111.806 143.492 113.927 141.482 113.927 139.473V113.347C113.927 113.002 114.214 112.658 114.615 112.658H117.54C117.884 112.658 118.228 112.945 118.228 113.347V139.473C118.228 144.009 115.762 146.65 111.462 146.65C110.143 146.65 109.111 146.65 106.187 145.215L100.167 141.769C98.6759 140.908 97.7585 139.3 97.7585 137.578V111.107C97.7585 109.385 98.6759 107.777 100.167 106.916L123.044 93.6517C124.477 92.8479 126.427 92.8479 127.86 93.6517L150.737 106.916C152.228 107.777 153.145 109.385 153.145 111.107V137.578C153.145 139.3 152.228 140.908 150.737 141.769L127.86 155.033C127.115 155.378 126.255 155.55 125.452 155.55ZM132.504 137.348C122.471 137.348 120.406 132.755 120.406 128.85C120.406 128.506 120.693 128.161 121.094 128.161H124.076C124.42 128.161 124.707 128.391 124.707 128.735C125.165 131.778 126.484 133.271 132.562 133.271C137.378 133.271 139.442 132.18 139.442 129.597C139.442 128.104 138.869 127.013 131.358 126.266C125.108 125.635 121.209 124.256 121.209 119.261C121.209 114.61 125.108 111.854 131.644 111.854C138.983 111.854 142.596 114.38 143.054 119.893C143.054 120.065 142.997 120.237 142.882 120.409C142.768 120.524 142.596 120.639 142.424 120.639H139.442C139.155 120.639 138.869 120.409 138.811 120.122C138.123 116.964 136.346 115.931 131.644 115.931C126.369 115.931 125.739 117.768 125.739 119.146C125.739 120.811 126.484 121.328 133.594 122.247C140.646 123.165 143.972 124.486 143.972 129.424C143.914 134.477 139.786 137.348 132.504 137.348Z" fill="#539E43"/>
<path d="M54.4695 52.0223C54.4695 50.9888 53.8962 50.0126 52.9788 49.4958L28.6682 35.4854C28.2668 35.2558 27.8081 35.1409 27.3494 35.0835H27.1201C26.6614 35.0835 26.2027 35.2558 25.8014 35.4854L1.49074 49.4958C0.573363 50.0126 0 50.9888 0 52.0223L0.0573363 89.6897C0.0573363 90.2064 0.344018 90.7232 0.802709 90.9529C1.2614 91.24 1.83476 91.24 2.23612 90.9529L16.6849 82.6845C17.6023 82.1677 18.1756 81.1915 18.1756 80.158V62.5301C18.1756 61.4966 18.749 60.5204 19.6664 60.0037L25.8014 56.4436C26.26 56.1565 26.7761 56.0417 27.2921 56.0417C27.8081 56.0417 28.3242 56.1565 28.7255 56.4436L34.8605 60.0037C35.7779 60.5204 36.3512 61.4966 36.3512 62.5301V80.158C36.3512 81.1915 36.9246 82.1677 37.842 82.6845L52.2907 90.9529C52.7494 91.24 53.3228 91.24 53.7815 90.9529C54.2402 90.7232 54.5269 90.2064 54.5269 89.6897L54.4695 52.0223Z" fill="#333333"/>
<path d="M171.321 0.172259C170.862 -0.0574197 170.289 -0.0574197 169.888 0.172259C169.429 0.459358 169.142 0.918716 169.142 1.43549V38.7583C169.142 39.1028 168.97 39.4474 168.626 39.677C168.282 39.8493 167.938 39.8493 167.594 39.677L161.517 36.1744C160.599 35.6577 159.51 35.6577 158.592 36.1744L134.282 50.2423C133.364 50.759 132.791 51.7352 132.791 52.7687V80.847C132.791 81.8805 133.364 82.8567 134.282 83.3735L158.592 97.4413C159.51 97.9581 160.599 97.9581 161.517 97.4413L185.827 83.3735C186.745 82.8567 187.318 81.8805 187.318 80.847V10.8523C187.318 9.76135 186.745 8.78522 185.827 8.26844L171.321 0.172259ZM169.085 71.6024C169.085 71.8895 168.97 72.1192 168.741 72.234L160.427 77.0573C160.198 77.1721 159.911 77.1721 159.682 77.0573L151.368 72.234C151.139 72.1192 151.024 71.8321 151.024 71.6024V61.9559C151.024 61.6688 151.139 61.4391 151.368 61.3243L159.682 56.501C159.911 56.3862 160.198 56.3862 160.427 56.501L168.741 61.3243C168.97 61.4391 169.085 61.7262 169.085 61.9559V71.6024Z" fill="#333333"/>
<path d="M252.223 61.7263C253.14 61.2095 253.656 60.2334 253.656 59.1998V52.3668C253.656 51.3333 253.083 50.3572 252.223 49.8404L228.084 35.83C227.167 35.3132 226.077 35.3132 225.16 35.83L200.849 49.8978C199.932 50.4146 199.358 51.3907 199.358 52.4243V80.5025C199.358 81.5361 199.932 82.5122 200.849 83.029L224.988 96.8097C225.905 97.3265 226.995 97.3265 227.855 96.8097L242.475 88.6561C242.934 88.4264 243.221 87.9097 243.221 87.3929C243.221 86.8761 242.934 86.3593 242.475 86.1297L218.05 72.0618C217.591 71.7747 217.305 71.3154 217.305 70.7986V62.0134C217.305 61.4966 217.591 60.9798 218.05 60.7501L225.676 56.3862C226.134 56.0991 226.708 56.0991 227.167 56.3862L234.792 60.7501C235.251 61.0372 235.538 61.4966 235.538 62.0134V68.9037C235.538 69.4205 235.824 69.9373 236.283 70.167C236.742 70.4541 237.315 70.4541 237.774 70.167L252.223 61.7263Z" fill="#333333"/>
<path d="M226.249 60.4055C226.421 60.2906 226.651 60.2906 226.823 60.4055L231.467 63.1042C231.639 63.219 231.754 63.3913 231.754 63.621V69.0184C231.754 69.2481 231.639 69.4204 231.467 69.5352L226.823 72.2339C226.651 72.3488 226.421 72.3488 226.249 72.2339L221.605 69.5352C221.433 69.4204 221.318 69.2481 221.318 69.0184V63.621C221.318 63.3913 221.433 63.219 221.605 63.1042L226.249 60.4055Z" fill="#539E43"/>
<path d="M95.1209 35.9447C94.2035 35.4279 93.1141 35.4279 92.1968 35.9447L68.0582 49.8977C67.1408 50.4145 66.6248 51.3906 66.6248 52.4242V80.3876C66.6248 81.4211 67.1981 82.3973 68.0582 82.9141L92.1968 96.8671C93.1141 97.3838 94.2035 97.3838 95.1209 96.8671L119.26 82.9141C120.177 82.3973 120.693 81.4211 120.693 80.3876V52.4242C120.693 51.3906 120.12 50.4145 119.26 49.8977L95.1209 35.9447Z" fill="url(#paint0_linear_128_66)"/>
<defs>
<linearGradient id="paint0_linear_128_66" x1="103.493" y1="46.3461" x2="76.979" y2="87.9452" gradientUnits="userSpaceOnUse">
<stop stop-color="#41873F"/>
<stop offset="0.3288" stop-color="#418B3D"/>
<stop offset="0.6352" stop-color="#419637"/>
<stop offset="0.9319" stop-color="#3FA92D"/>
<stop offset="1" stop-color="#3FAE2A"/>
</linearGradient>
</defs>
</svg>
