<svg width="198" height="188" viewBox="0 0 198 188" fill="none" xmlns="http://www.w3.org/2000/svg">
<path d="M137.136 130.969C140.66 130.625 143.915 128.929 146.216 126.237C148.518 123.545 149.687 120.067 149.479 116.531C149.317 112.9 147.768 109.47 145.152 106.947C142.536 104.424 139.051 103 135.417 102.969H134.917C131.188 103.102 127.665 104.709 125.12 107.437C122.575 110.166 121.217 113.792 121.344 117.521C121.594 121.469 123.208 124.677 125.417 127.011C116.802 143.771 103.854 156.115 84.2293 166.469C71.0418 173.375 57.1043 175.969 43.5522 174.115C32.2084 172.521 23.3439 167.448 17.8959 159.313C9.77094 146.969 9.02093 133.667 15.8022 120.354C19.9381 112.412 25.8478 105.529 33.073 100.24C31.5863 96.1096 30.4333 91.8668 29.6251 87.5522C-6.89573 113.698 -3.16657 149.448 7.91677 166.344C16.1876 178.677 33.073 186.563 51.5626 186.563C56.5001 186.563 61.6876 186.198 66.7397 184.958C98.7918 178.792 123.083 159.563 137.021 131.208L137.136 130.969Z" fill="#812BB7"/>
<path d="M181.156 100.135C162.052 77.6979 133.938 65.375 101.875 65.375H97.6772C95.5938 60.8125 90.7917 57.9688 85.3542 57.9688H84.9792C77.2292 57.9688 71.1772 64.6354 71.4272 72.3958C71.6667 79.7917 77.9584 85.9583 85.4897 85.9583H86.1042C88.7701 85.8575 91.3503 84.9903 93.5358 83.4605C95.7214 81.9308 97.4197 79.8035 98.4272 77.3333H103C122 77.3333 139.99 82.875 156.396 93.7292C168.958 101.979 177.979 112.833 183.031 125.781C187.458 136.396 187.219 146.75 182.667 155.396C175.635 168.958 163.792 176.104 148.146 176.104C138.281 176.104 128.656 173.021 123.719 170.802C120.771 173.25 115.823 177.323 112.24 179.792C123.094 184.719 134.073 187.563 144.667 187.563C168.719 187.563 186.573 174 193.375 160.927C200.76 146.115 200.156 121.208 181.281 99.8958L181.156 100.135Z" fill="#812BB7"/>
<path d="M53.6561 135.406C53.8957 142.802 60.177 148.969 67.7186 148.969H68.2186C70.0718 148.926 71.8978 148.514 73.589 147.755C75.2802 146.996 76.8026 145.907 78.0664 144.551C79.3302 143.195 80.3099 141.599 80.9479 139.859C81.5859 138.119 81.8692 136.268 81.7811 134.417C81.7811 127.021 75.3645 120.865 67.8436 120.865H67.3436C66.8436 120.865 66.1145 120.865 65.4895 121.094C55.2603 103.833 50.9374 85.3229 52.552 65.375C53.5311 50.3229 58.4582 37.25 67.3436 26.3958C74.7395 17.1458 88.677 12.5833 98.177 12.3333C124.802 11.8333 135.906 45.0208 136.76 58.2083L149.094 61.8958C146.25 21.4583 121.104 0.25 97.052 0.25C74.4895 0.25 53.6561 16.6458 45.2707 40.7083C33.7916 72.7604 41.3228 103.583 55.3853 128.25C54.1561 129.854 53.4166 132.687 53.6561 135.406Z" fill="#812BB7"/>
</svg>
