<svg width="250" height="188" viewBox="0 0 250 188" fill="none" xmlns="http://www.w3.org/2000/svg">
<path fill-rule="evenodd" clip-rule="evenodd" d="M209.127 13.323L214.396 19.7127C215.78 21.3992 215.434 23.8164 213.603 25.0906L208.008 29.0069C209.025 31.499 209.676 34.1599 209.941 36.8769L216.309 37.6826C218.587 37.9637 220.174 39.9125 219.869 42.0111L218.689 49.9749C218.384 52.0735 216.268 53.5539 213.989 53.254L207.031 52.3734C205.79 54.8655 204.203 57.1516 202.332 59.194L206.238 63.9161C207.621 65.6025 207.255 68.0197 205.424 69.2939L198.486 74.1471C196.655 75.4213 194.031 75.084 192.647 73.4163L188.395 68.2633C185.669 69.2002 182.8 69.7998 179.83 70.0434L178.955 75.9085C178.65 78.0072 176.534 79.4687 174.256 79.1877L165.609 78.1009C163.33 77.8198 161.743 75.871 162.048 73.7723L163.005 67.3639C160.319 66.2209 157.817 64.7593 155.599 63.0541L150.472 66.6331C148.641 67.9073 146.017 67.5887 144.633 65.9023L139.364 59.5126C137.98 57.8262 138.326 55.4089 140.157 54.1347L145.752 50.2185C144.735 47.7075 144.084 45.0655 143.819 42.3484L137.451 41.5427C135.173 41.2616 133.565 39.3129 133.891 37.2142L135.071 29.2505C135.396 27.1518 137.492 25.6902 139.771 25.9713L146.729 26.852C147.97 24.3785 149.557 22.0737 151.408 20.0313L147.522 15.3093C146.139 13.6416 146.485 11.2243 148.316 9.95015L155.253 5.09697C157.084 3.82277 159.709 4.14132 161.092 5.82775L165.344 10.9807C168.05 10.0438 170.939 9.44422 173.889 9.20062L174.764 3.33558C175.069 1.2369 177.185 -0.243411 179.464 0.0376613L188.11 1.12447C190.389 1.40555 191.996 3.35432 191.671 5.45299L190.715 11.8614C193.421 13.0045 195.903 14.466 198.141 16.19L203.268 12.611C205.099 11.318 207.723 11.6366 209.127 13.323ZM60.3639 125.771V94.8528H77.6572C80.8717 94.8528 83.3131 95.0964 85.0018 95.621C86.6904 96.127 88.0739 97.0639 89.0911 98.4318C90.1287 99.8184 90.6577 101.486 90.6577 103.454C90.6577 105.159 90.2508 106.658 89.4573 107.895C88.6639 109.15 87.5652 110.162 86.1818 110.93C85.3069 111.417 84.0862 111.83 82.54 112.148C83.7811 112.542 84.6762 112.898 85.2256 113.291C85.6121 113.553 86.1614 114.097 86.8735 114.921C87.5856 115.746 88.0739 116.402 88.318 116.851L93.3636 125.789H81.6448L76.111 116.364C75.3989 115.146 74.7886 114.34 74.2392 113.984C73.4865 113.516 72.632 113.272 71.6961 113.272H70.7806V125.789H60.3639V125.771ZM96.9443 179.605H77.5758L74.7886 188H57.3325L78.1455 137.051H96.8629L117.595 188H99.6909L96.9443 179.605ZM93.3229 168.569L87.2804 150.243L81.2176 168.569H93.3229ZM121.623 137.051H150.065C156.27 137.051 160.909 138.4 163.981 141.117C167.053 143.834 168.6 147.713 168.6 152.716C168.6 157.869 166.911 161.898 163.554 164.802C160.197 167.707 155.05 169.15 148.153 169.15H138.774V188H121.623V137.051ZM138.774 158.825H142.985C146.301 158.825 148.641 158.3 149.984 157.232C151.327 156.183 151.998 154.815 151.998 153.185C151.998 151.592 151.408 150.224 150.248 149.118C149.089 148.013 146.891 147.451 143.677 147.451H138.774V158.825ZM175.517 137.051H192.668V188H175.517V137.051ZM70.7806 107.407H75.1548C75.6227 107.407 76.5382 107.257 77.9013 106.976C78.5931 106.845 79.1627 106.527 79.59 106.002C80.0376 105.477 80.241 104.878 80.241 104.203C80.241 103.21 79.8952 102.423 79.2034 101.898C78.5117 101.355 77.23 101.093 75.3379 101.093H70.7806V107.407ZM95.3574 94.8528H123.128V101.449H105.774V106.377H121.867V112.673H105.774V118.763H123.637V125.752H95.3574V94.8528ZM126.099 115.54L135.946 114.978C136.149 116.458 136.597 117.563 137.248 118.332C138.326 119.568 139.852 120.206 141.825 120.206C143.29 120.206 144.45 119.887 145.243 119.25C146.037 118.613 146.444 117.863 146.444 117.02C146.444 116.214 146.057 115.502 145.304 114.865C144.552 114.228 142.782 113.647 139.994 113.066C135.457 112.129 132.223 110.874 130.27 109.319C128.316 107.763 127.34 105.777 127.34 103.36C127.34 101.767 127.848 100.268 128.845 98.8627C129.842 97.4574 131.348 96.3331 133.362 95.5273C135.376 94.7216 138.123 94.3281 141.622 94.3281C145.915 94.3281 149.17 95.0589 151.428 96.5392C153.666 98.0195 155.009 100.343 155.436 103.566L145.691 104.109C145.427 102.704 144.877 101.673 144.063 101.055C143.229 100.418 142.07 100.099 140.625 100.099C139.425 100.099 138.509 100.343 137.899 100.812C137.289 101.28 136.983 101.861 136.983 102.535C136.983 103.023 137.248 103.454 137.736 103.866C138.224 104.259 139.364 104.653 141.195 105.009C145.732 105.908 148.987 106.826 150.94 107.745C152.893 108.663 154.338 109.806 155.213 111.174C156.108 112.523 156.555 114.059 156.555 115.746C156.555 117.732 155.965 119.55 154.765 121.217C153.585 122.885 151.917 124.159 149.78 125.021C147.644 125.883 144.959 126.314 141.703 126.314C136.007 126.314 132.04 125.302 129.842 123.279C127.645 121.217 126.404 118.65 126.099 115.54ZM158.061 94.8528H189.616V102.498H179.037V125.771H168.661V102.498H158.061V94.8528ZM123.149 21.4741C119.426 21.2118 115.662 21.2493 111.939 21.5866C100.484 22.5984 89.3556 26.4397 80.1597 33.0168C69.5192 40.6058 61.4422 51.9611 58.3294 67.0079L57.3528 71.7111L52.2666 72.5356C47.282 73.3414 42.8265 74.4469 38.9202 75.8523C35.136 77.2014 31.7588 78.8691 28.8087 80.8366C26.4487 82.4106 24.4142 84.172 22.6849 86.0833C17.3341 91.9858 14.852 99.3874 14.9131 106.883C14.9741 114.49 17.6596 122.173 22.6238 128.488C24.4752 130.83 26.6115 132.985 29.0529 134.859C31.535 136.751 34.3222 138.325 37.4554 139.506C39.2254 140.18 41.1175 140.743 43.091 141.192V155.227C39.0219 154.553 35.2785 153.541 31.7791 152.21C27.1608 150.449 23.0714 148.182 19.4704 145.408C16.0524 142.785 13.0617 139.806 10.5185 136.564C3.74362 127.944 0.0815152 117.414 0.000134965 106.92C-0.0812452 96.3144 3.49948 85.7648 11.2306 77.2202C13.733 74.4469 16.6831 71.8985 20.0604 69.6499C23.987 67.0266 28.4832 64.8155 33.5695 62.9979C37.0688 61.7424 40.8123 60.6931 44.7593 59.8499C49.2352 43.4727 58.777 30.8619 71.0451 22.1112C82.5197 13.9226 96.334 9.14441 110.555 7.88895C118.022 7.23312 125.59 7.53293 132.996 8.80712C132.833 9.42548 132.691 10.0438 132.609 10.6809L132.589 10.7934C132.446 11.8614 132.385 12.9295 132.446 14.0163C130.88 14.5785 129.415 15.3467 128.093 16.2836L128.032 16.3211C126.058 17.689 124.39 19.4504 123.149 21.4741ZM230.794 57.4514C231.934 58.407 233.032 59.4002 234.111 60.4682C236.288 62.6231 238.342 65.0591 240.275 67.7761C246.786 76.9953 250.122 89.3063 249.98 101.355C249.837 113.179 246.379 124.946 239.299 133.603C234.68 139.243 228.76 143.853 221.659 147.507C216.797 150.018 211.324 152.098 205.363 153.784V139.262C208.578 138.157 211.568 136.92 214.315 135.515C219.666 132.76 224.04 129.406 227.315 125.377C232.402 119.137 234.904 110.312 235.006 101.261C235.128 91.761 232.605 82.2233 227.702 75.2901C226.298 73.2851 224.752 71.4863 223.124 69.8748C222.494 69.2564 221.863 68.6756 221.212 68.1134C221.314 67.1765 221.354 66.2209 221.293 65.2652C222.86 64.7031 224.325 63.9348 225.647 62.9979L225.708 62.9604C227.804 61.4801 229.553 59.6063 230.794 57.4514ZM179.199 23.985C188.578 25.1655 195.13 33.1293 193.848 41.7676C192.566 50.4058 183.919 56.4583 174.54 55.2778C165.161 54.0973 158.59 46.1335 159.892 37.4952C161.194 28.857 169.82 22.8045 179.199 23.985Z" fill="white"/>
</svg>
