<svg width="210" height="210" viewBox="0 0 210 210" fill="none" xmlns="http://www.w3.org/2000/svg">
<path d="M105 0.833496C162.521 0.833496 209.167 47.4793 209.167 105C209.167 162.521 162.521 209.167 105 209.167C47.4791 209.167 0.833252 162.521 0.833252 105C0.833252 47.4793 47.4791 0.833496 105 0.833496ZM84.302 139.708C85.8228 145.302 85.6562 150.531 84.0832 155.261L83.5207 156.823C82.2049 159.973 80.3469 162.867 78.0312 165.375C71.9687 171.969 63.5103 174.458 59.8853 172.365C55.9791 170.083 57.927 160.781 64.9582 153.354C72.5207 145.386 83.3541 140.25 83.3541 140.25V140.229L84.302 139.708ZM170.323 45.4272C165.614 26.9168 134.937 20.8231 105.896 31.146C88.6458 37.2814 69.927 46.9272 56.4895 59.5106C40.4895 74.4481 37.9478 87.4689 38.9895 92.9064C42.6874 112.104 68.9999 124.656 79.8228 133.969V134.021C76.6249 135.573 53.2812 147.292 47.8228 159.417C41.9583 172.177 48.7395 181.302 53.1666 182.458C66.8437 186.24 80.8957 179.333 88.4582 168.146C95.7395 157.198 95.1041 143.146 91.9687 136.24C96.2707 135.073 101.333 134.552 107.844 135.344C126.083 137.417 129.729 148.886 128.927 153.573C128.156 158.25 124.385 160.979 123.083 161.761C121.771 162.552 121.385 162.813 121.51 163.333C121.646 164.104 122.302 164.104 123.333 163.99C124.771 163.729 132.854 160.083 133.239 151.208C133.625 140.021 122.948 127.531 103.937 127.771C96.1249 127.917 91.1666 128.563 87.6562 130C87.4193 129.633 87.1068 129.32 86.7395 129.083C75.0207 116.448 53.2708 107.594 54.1874 90.8022C54.4478 84.6772 56.6562 68.5418 95.8541 49.0106C128.021 32.9897 153.677 37.4272 158.115 47.1877C164.469 61.1043 144.427 87.0314 110.969 90.8022C98.2082 92.2397 91.5728 87.2918 89.8645 85.4585C88.052 83.5002 87.802 83.3752 87.1457 83.7814C86.0937 84.3022 86.7499 85.9897 87.1457 87.0418C88.1874 89.6356 92.2187 94.2085 99.2603 96.5418C105.375 98.5002 120.344 99.6564 138.323 92.6356C158.5 84.8335 174.25 63.0731 169.698 44.8439L170.323 45.4272Z" fill="#D8558E"/>
</svg>
