<svg width="188" height="188" viewBox="0 0 188 188" fill="none" xmlns="http://www.w3.org/2000/svg">
<path d="M169.417 0.25H18.5833C13.721 0.25 9.05788 2.18154 5.61971 5.61971C2.18154 9.05788 0.25 13.721 0.25 18.5833V169.417C0.25 174.279 2.18154 178.942 5.61971 182.38C9.05788 185.818 13.721 187.75 18.5833 187.75H169.417C171.824 187.75 174.208 187.276 176.433 186.354C178.657 185.433 180.678 184.083 182.38 182.38C184.083 180.678 185.433 178.657 186.354 176.433C187.276 174.208 187.75 171.824 187.75 169.417V18.5833C187.75 16.1758 187.276 13.7918 186.354 11.5675C185.433 9.34317 184.083 7.32212 182.38 5.61971C180.678 3.9173 178.657 2.56688 176.433 1.64554C174.208 0.724205 171.824 0.25 169.417 0.25ZM109 104.417H85.5625V171.5H66.9167V104.417H43.4792V89.2083H109V104.417ZM169.417 159.417C167.909 162.623 165.479 165.307 162.438 167.125C159.238 169.094 155.709 170.471 152.021 171.188C147.909 172.037 143.72 172.456 139.521 172.438C135.225 172.434 130.937 172.05 126.708 171.292C123.114 170.556 119.618 169.402 116.292 167.854V150.042L115.667 149.417H116.292V150.146C119.425 152.59 122.946 154.492 126.708 155.771C130.465 157.201 134.459 157.908 138.479 157.854C140.58 157.891 142.677 157.681 144.729 157.229C146.27 156.869 147.746 156.271 149.104 155.458C150.167 154.81 151.06 153.917 151.708 152.854C152.35 151.643 152.632 150.274 152.521 148.909C152.41 147.543 151.911 146.237 151.083 145.146C150.104 143.773 148.866 142.605 147.437 141.708C145.704 140.489 143.854 139.442 141.917 138.583L134.938 135.667C129.413 133.391 124.518 129.818 120.667 125.25C117.444 121.365 115.741 116.442 115.875 111.396C115.754 107.562 116.614 103.761 118.375 100.354C120.055 97.3842 122.41 94.8507 125.25 92.9583C128.414 90.8534 131.949 89.3688 135.667 88.5833C139.731 87.6479 143.892 87.1934 148.063 87.2292C151.86 87.1761 155.657 87.4199 159.417 87.9583C162.545 88.4474 165.616 89.25 168.583 90.3542V107.542C167.212 106.564 165.747 105.727 164.208 105.042C162.552 104.329 160.846 103.737 159.104 103.271C157.435 102.782 155.727 102.434 154 102.229C152.406 102.079 150.802 102.079 149.208 102.229C147.246 102.197 145.286 102.407 143.375 102.854C141.807 103.183 140.297 103.745 138.896 104.521C137.802 105.165 136.874 106.057 136.187 107.125C135.564 108.162 135.24 109.352 135.25 110.563C135.225 111.855 135.587 113.125 136.292 114.208C137.147 115.391 138.205 116.414 139.417 117.229C140.885 118.398 142.495 119.378 144.208 120.146L150.771 123.063C153.788 124.31 156.712 125.772 159.521 127.438C161.99 128.789 164.239 130.51 166.188 132.542C168.097 134.392 169.589 136.63 170.563 139.104C171.561 141.948 172.055 144.944 172.021 147.958C171.946 151.849 171.059 155.681 169.417 159.208V159.417Z" fill="#226EC3"/>
</svg>
