<svg width="74" height="43" viewBox="0 0 74 43" fill="none" xmlns="http://www.w3.org/2000/svg">
<path d="M7.96545 9.09049C7.84553 9.09049 7.61297 9.12049 7.26796 9.1805C6.93791 9.22556 6.54795 9.28557 6.09787 9.36053C5.6479 9.43549 5.1753 9.52551 4.68026 9.63057C4.18523 9.72059 3.72021 9.80303 3.28519 9.87809C2.85017 9.95305 2.47516 10.0205 2.16015 10.0805C1.8301 10.1256 1.61259 10.148 1.50762 10.148C0.502507 10.148 0 9.623 0 8.57303C0 8.28793 0.0300055 8.01041 0.0900155 7.74047C0.135074 7.45537 0.225088 7.20037 0.36006 6.97539C0.495031 6.73535 0.675062 6.53289 0.900048 6.36782C1.12514 6.20284 1.41013 6.09029 1.75514 6.03028C3.51028 5.76034 5.25783 5.47524 6.99792 5.17529C8.738 4.87524 10.4931 4.56025 12.2632 4.23019C12.6533 4.15523 13.0058 4.08774 13.3208 4.02773C13.6359 3.95267 13.9884 3.85518 14.3784 3.73516C14.7984 3.61514 15.2559 3.5027 15.751 3.39763C16.246 3.27771 16.741 3.17264 17.2361 3.08263C17.7461 2.99261 18.2336 2.91765 18.6986 2.85764C19.1787 2.79763 19.6137 2.76763 20.0037 2.76763C20.4838 2.76763 20.8437 2.92513 21.0838 3.24013C21.3388 3.54018 21.4663 3.96772 21.4663 4.52277C21.4663 4.80776 21.4438 5.08528 21.3988 5.35533C21.3538 5.61032 21.2713 5.84278 21.1513 6.05281C21.0312 6.26285 20.8663 6.4353 20.6562 6.57037C20.4462 6.70535 20.1762 6.78788 19.8462 6.81789C18.9911 6.93791 18.0761 7.08793 17.101 7.26786C16.126 7.43294 15.2785 7.62044 14.5584 7.83048C14.2584 7.92039 14.0333 8.07042 13.8834 8.28045C13.7334 8.47543 13.6359 8.72295 13.5908 9.023C13.5459 9.30799 13.5159 9.60057 13.5008 9.90051C13.5008 10.1856 13.5008 10.4631 13.5008 10.7331C13.5008 11.3632 13.5233 11.9932 13.5683 12.6232C13.6283 13.2533 13.6808 13.8833 13.7258 14.5133C13.8609 16.6734 14.0633 18.8111 14.3334 20.9262C14.6184 23.0414 14.9259 25.179 15.2559 27.339C15.286 27.4141 15.3009 27.4891 15.3009 27.5641C15.3009 27.6391 15.3009 27.7142 15.3009 27.7891C15.3009 28.6142 14.8359 29.1992 13.9058 29.5443L12.8933 29.8593C12.6233 29.9493 12.3607 29.9942 12.1057 29.9942C11.7158 29.9942 11.4007 29.8667 11.1607 29.6117C10.9207 29.3717 10.7632 29.0116 10.6881 28.5317C10.2682 25.9515 9.90062 23.3864 9.58562 20.8362C9.27062 18.2711 9.06806 15.6909 8.97804 13.0958C8.94804 12.6757 8.92551 12.2182 8.91056 11.7231C8.8955 11.2281 8.88803 10.7181 8.88803 10.1931C8.88803 9.45802 8.5805 9.09049 7.96545 9.09049ZM26.4841 19.8237C26.4841 21.8338 26.7916 23.3864 27.4066 24.4814C28.0217 25.5765 28.9143 26.124 30.0843 26.124C30.8193 26.124 31.4944 25.9065 32.1094 25.4715C32.7394 25.0364 33.2795 24.429 33.7295 23.6488C34.1796 22.8688 34.5246 21.9462 34.7646 20.8812C35.0196 19.8011 35.1471 18.631 35.1471 17.371C35.1471 16.606 35.1171 15.946 35.0571 15.3909C34.9971 14.8208 34.9296 14.3183 34.8546 13.8833C34.7946 13.4332 34.7346 13.0358 34.6746 12.6907C34.6146 12.3457 34.5846 12.0157 34.5846 11.7007C34.5846 11.2206 34.7871 10.8756 35.1922 10.6656C35.5972 10.4406 36.2421 10.3281 37.1272 10.3281C38.2523 10.3281 39.1224 10.5831 39.7373 11.0931C40.3675 11.6031 40.6825 12.3457 40.6825 13.3208C40.6825 15.976 40.4199 18.3611 39.8948 20.4762C39.3849 22.5913 38.6423 24.3914 37.6673 25.8765C36.7073 27.3466 35.5372 28.4791 34.157 29.2742C32.777 30.0693 31.2319 30.4667 29.5218 30.4667C28.3067 30.4667 27.1816 30.2117 26.1466 29.7018C25.1266 29.2067 24.2415 28.5091 23.4914 27.6091C22.7564 26.6941 22.1788 25.614 21.7588 24.369C21.3388 23.1089 21.1287 21.7287 21.1287 20.2287C21.1287 19.6586 21.1438 19.0511 21.1738 18.4061C21.2038 17.761 21.2487 17.071 21.3088 16.3359C21.3688 15.5859 21.4438 14.7759 21.5338 13.9058C21.6388 13.0358 21.7514 12.0907 21.8713 11.0706C21.9163 10.6356 22.1188 10.2906 22.4788 10.0356C22.8539 9.76554 23.3264 9.63057 23.8965 9.63057C24.4064 9.63057 24.8865 9.68301 25.3365 9.78807C25.7866 9.89304 26.1691 10.0356 26.4841 10.2156C26.8141 10.3955 27.0691 10.6056 27.2491 10.8456C27.4441 11.0857 27.5417 11.3407 27.5417 11.6107C27.5417 11.8806 27.4817 12.3082 27.3617 12.8932C27.2566 13.4632 27.1366 14.1233 27.0016 14.8734C26.8816 15.6084 26.7616 16.411 26.6416 17.281C26.5366 18.136 26.4841 18.9836 26.4841 19.8237ZM42.1901 2.16005C42.1901 1.38002 42.4151 0.824982 42.865 0.495029C43.3151 0.164975 44.0577 0 45.0927 0C45.4527 0 45.7677 0.0374798 46.0378 0.112441C46.3078 0.187505 46.5328 0.314999 46.7128 0.495029C46.8928 0.660006 47.0353 0.89257 47.1403 1.19252C47.2603 1.47751 47.3578 1.84505 47.4329 2.29512C47.6278 3.63019 47.8228 5.03275 48.0179 6.50289C48.2279 7.95798 48.4229 9.41306 48.6029 10.8682C48.7979 12.3082 48.978 13.7183 49.1429 15.0983C49.3079 16.4634 49.4505 17.7385 49.5705 18.9236C49.7055 20.0937 49.8029 21.1362 49.863 22.0513C49.938 22.9513 49.9755 23.6639 49.9755 24.1889C49.9755 24.7289 49.923 25.1865 49.818 25.5615C49.728 25.9365 49.563 26.2365 49.323 26.4615C49.098 26.6865 48.7979 26.8516 48.4229 26.9566C48.0629 27.0466 47.6129 27.0915 47.0728 27.0915C46.5478 27.0915 46.1278 26.9566 45.8128 26.6865C45.5127 26.4166 45.3627 26.004 45.3627 25.4489C45.3627 24.8789 45.3178 24.1214 45.2277 23.1763C45.1377 22.2163 45.0177 21.1513 44.8677 19.9812C44.7177 18.8111 44.5452 17.566 44.3501 16.2459C44.1701 14.9259 43.9751 13.6208 43.7651 12.3307C43.5701 11.0406 43.3751 9.80303 43.1801 8.61798C43.0001 7.41789 42.835 6.36034 42.6851 5.44534C42.5351 4.51519 42.4151 3.75769 42.325 3.17264C42.235 2.57264 42.1901 2.23511 42.1901 2.16005ZM62.9587 28.3967C62.0587 28.3967 61.1586 28.1792 60.2586 27.7442C59.3586 27.2941 58.496 26.6865 57.6709 25.9215C56.8459 25.1565 56.0808 24.2564 55.3758 23.2214C54.6708 22.1713 54.0558 21.0462 53.5307 19.8462C53.0057 18.631 52.5931 17.3635 52.2932 16.0434C51.9931 14.7233 51.8431 13.4032 51.8431 12.0832C51.8431 11.0631 52.0531 10.3355 52.4732 9.90051C52.8932 9.45054 53.5757 9.22556 54.5208 9.22556C55.7058 9.22556 56.3658 9.71301 56.5009 10.6881C56.7709 12.7583 57.1459 14.6258 57.6259 16.291C58.1059 17.956 58.6685 19.3736 59.3135 20.5437C59.9736 21.7138 60.7011 22.6138 61.4962 23.2438C62.3062 23.8739 63.1613 24.1889 64.0613 24.1889C64.7064 24.1889 65.3139 24.0314 65.884 23.7163C66.454 23.3864 66.949 22.9288 67.3691 22.3438C67.519 22.1188 67.6166 21.9013 67.6615 21.6912C67.7215 21.4812 67.7665 21.2413 67.7965 20.9712C67.8716 19.9061 67.954 18.8636 68.044 17.8435C68.1491 16.8084 68.2466 15.7734 68.3366 14.7384C68.3666 14.2883 68.4266 13.9208 68.5166 13.6358C68.6066 13.3508 68.7416 13.1258 68.9216 12.9607C69.1017 12.7957 69.3341 12.6832 69.6191 12.6232C69.9192 12.5632 70.2942 12.5332 70.7443 12.5332C71.2542 12.5332 71.6893 12.6082 72.0493 12.7583C72.4093 12.8932 72.7019 13.1258 72.9268 13.4557C73.1518 13.7707 73.3093 14.1908 73.3994 14.7159C73.5044 15.2258 73.5569 15.8634 73.5569 16.6285C73.5569 17.2885 73.5044 17.8661 73.3994 18.3611C73.3093 18.8411 73.1969 19.2986 73.0618 19.7337C72.9419 20.1536 72.8219 20.5737 72.7019 20.9938C72.5968 21.3988 72.5293 21.8487 72.4993 22.3438C72.4243 23.5888 72.3569 24.6689 72.2968 25.584C72.2368 26.4841 72.1843 27.2566 72.1393 27.9017C72.1093 28.5466 72.0793 29.1017 72.0493 29.5667C72.0343 30.0317 72.0193 30.4443 72.0043 30.8043C71.9893 31.1793 71.9818 31.5319 71.9818 31.8619C71.9818 32.1919 71.9818 32.5519 71.9818 32.9419C71.9818 33.6469 72.0117 34.412 72.0718 35.237C72.1318 36.0771 72.1918 36.8797 72.2518 37.6447C72.3269 38.4098 72.3943 39.0848 72.4544 39.6699C72.5144 40.2549 72.5444 40.6599 72.5444 40.8849C72.5444 41.1699 72.4544 41.4399 72.2743 41.6949C72.0943 41.9499 71.8542 42.175 71.5543 42.37C71.2542 42.565 70.9018 42.715 70.4967 42.82C70.0916 42.94 69.6642 43 69.2141 43C68.8242 43 68.509 42.865 68.2691 42.595C68.044 42.34 67.9165 41.995 67.8865 41.56C67.8416 40.9899 67.8041 40.2924 67.7741 39.4673C67.7441 38.6573 67.7141 37.7872 67.6841 36.8572C67.6541 35.9421 67.6315 35.0045 67.6166 34.0445C67.6166 33.0994 67.609 32.2144 67.5941 31.3893C67.579 30.5793 67.5715 29.8667 67.5715 29.2517C67.5715 28.6366 67.5715 28.1941 67.5715 27.9241C67.5715 27.6541 67.5415 27.4666 67.4815 27.3616C67.4215 27.2416 67.3091 27.1815 67.144 27.1815C67.054 27.1815 66.934 27.2115 66.784 27.2716C66.634 27.3166 66.4614 27.399 66.2665 27.5191C65.7414 27.8341 65.2089 28.0592 64.6688 28.1941C64.1288 28.3291 63.5588 28.3967 62.9587 28.3967Z" fill="white"/>
<path d="M63.2965 6.07904C64.7105 6.07904 65.8567 4.93283 65.8567 3.51889C65.8567 2.10496 64.7105 0.95874 63.2965 0.95874C61.8826 0.95874 60.7364 2.10496 60.7364 3.51889C60.7364 4.93283 61.8826 6.07904 63.2965 6.07904Z" fill="white"/>
</svg>
