<svg width="514" height="982" viewBox="0 0 514 982" fill="none" xmlns="http://www.w3.org/2000/svg">
<rect x="0.000244141" width="514" height="982" fill="url(#paint0_radial_129_106)"/>
<path d="M25.581 688.719L31.0723 711.825L32.5317 711.478C35.0856 710.872 36.8272 709.28 37.7567 706.703C38.7267 704.117 38.7782 701 37.9112 697.352C37.0345 693.663 35.4721 691.143 33.224 689.793C31.0068 688.393 28.9456 687.919 27.0403 688.372L25.581 688.719ZM39.1196 722.44L17.0469 727.685L5.91964 680.865L27.9924 675.619C34.7621 674.01 40.6671 675.069 45.7071 678.797C50.7472 682.524 54.0476 687.671 55.6083 694.238C57.1593 700.765 56.4331 706.719 53.4294 712.101C50.4161 717.442 45.6462 720.889 39.1196 722.44ZM78.373 695.959L82.2314 712.194L65.388 716.197L54.2607 669.376L81.3196 662.945C86.5489 661.703 91.0017 662.058 94.6778 664.011C98.3444 665.923 100.751 669.291 101.897 674.115C103.535 681.006 101.78 686.327 96.6329 690.077L110.263 705.532L91.5348 709.983L79.7715 695.626L78.373 695.959ZM73.922 677.23L75.555 684.101L82.0005 682.57C83.9463 682.107 84.6494 680.741 84.1099 678.471C83.5608 676.16 82.3133 675.236 80.3675 675.699L73.922 677.23ZM133.282 681.56L126.489 668.656L126.715 683.121L133.282 681.56ZM139.383 692.637L126.735 695.643L126.742 701.616L111.783 705.171L115.006 654.939L134.282 650.358L159.76 693.769L142.308 697.916L139.383 692.637ZM176.381 652.88C172.368 653.834 171.276 658.162 173.107 665.864C174.937 673.566 177.9 676.931 181.994 675.958C184.953 675.255 186.532 673.338 186.73 670.207L183.386 671.002L181.16 661.638L201.53 656.797L207.614 682.396L194.541 685.503L193.311 683.033C191.946 685.756 188.689 687.729 183.54 688.952C177.095 690.484 171.243 689.648 165.984 686.444C160.767 683.23 157.223 677.691 155.354 669.826C153.476 661.921 154.407 655.297 158.148 649.954C161.889 644.611 166.678 641.246 172.515 639.859C178.393 638.462 183.702 638.635 188.442 640.378C193.213 642.071 196.739 645.194 199.02 649.748L183.756 657.423C181.88 653.672 179.462 652.148 176.502 652.851C176.502 652.851 176.462 652.861 176.381 652.88ZM226.7 640.793C225.861 637.267 226.892 633.852 229.79 630.551C232.679 627.209 237.063 624.84 242.941 623.443C253.115 621.025 260.723 622.579 265.762 628.105L254.2 636.763C252.865 635.11 250.313 634.732 246.543 635.628C243.867 636.264 242.761 637.554 243.223 639.5C243.676 641.405 244.875 642.127 246.821 641.664L271.387 635.826L274.191 647.623L271.393 648.287L276.105 668.11L261.146 671.665L259.708 668.859C257.712 671.09 255.396 672.518 252.761 673.144C246.923 674.531 242.04 674.257 238.111 672.322C234.173 670.345 231.688 667.189 230.657 662.851C229.424 657.662 230.715 653.544 234.53 650.496C230.427 648.73 227.817 645.496 226.7 640.793ZM247.426 657.453C247.994 659.844 249.763 660.709 252.732 660.046C254.029 659.738 255.161 659.276 256.128 658.661L254.611 652.276L249.625 653.461C247.638 653.933 246.905 655.264 247.426 657.453ZM43.3846 763.632L48.876 786.739L50.3354 786.392C52.8892 785.785 54.6309 784.193 55.5604 781.617C56.5304 779.031 56.5819 775.914 55.7148 772.265C54.8381 768.576 53.2757 766.057 51.0276 764.707C48.8105 763.306 46.7492 762.833 44.844 763.286L43.3846 763.632ZM56.9233 797.353L34.8506 802.599L23.7233 755.778L45.796 750.532C52.5658 748.923 58.4707 749.983 63.5108 753.71C68.5508 757.437 71.8512 762.585 73.4119 769.152C74.963 775.678 74.2367 781.632 71.2331 787.014C68.2198 792.356 63.4499 795.802 56.9233 797.353ZM96.1766 770.872L100.035 787.107L83.1917 791.11L72.0644 744.289L99.1232 737.859C104.353 736.616 108.805 736.971 112.481 738.924C116.148 740.836 118.555 744.205 119.701 749.029C121.339 755.92 119.584 761.241 114.437 764.991L128.067 780.446L109.338 784.896L97.5752 770.54L96.1766 770.872ZM91.7257 752.144L93.3587 759.015L99.8041 757.483C101.75 757.021 102.453 755.654 101.914 753.384C101.364 751.074 100.117 750.15 98.1712 750.612L91.7257 752.144ZM150.909 762.49C155.056 761.376 156.223 757.009 154.412 749.388C152.601 741.766 149.648 738.442 145.554 739.415C141.5 740.379 140.384 744.691 142.204 752.353C144.025 760.015 146.927 763.394 150.909 762.49ZM126.759 736.559C130.052 731.493 135.286 728.108 142.461 726.403C149.636 724.698 155.834 725.366 161.054 728.408C166.274 731.451 169.842 737.005 171.759 745.072C173.667 753.099 172.998 759.746 169.753 765.014C166.539 770.232 161.243 773.717 153.866 775.471C146.488 777.224 140.241 776.439 135.126 773.115C130.041 769.741 126.555 764.081 124.666 756.136C122.768 748.15 123.466 741.624 126.759 736.559ZM190.354 728.704L192.29 736.852L198.796 735.306C200.702 734.853 201.332 733.269 200.686 730.553C200.041 727.837 198.745 726.71 196.799 727.172L190.354 728.704ZM195.094 748.649L198.663 763.668L181.82 767.671L170.692 720.85L197.751 714.419C202.981 713.176 207.457 713.633 211.182 715.788C214.896 717.904 217.327 721.373 218.473 726.197C219.62 731.021 219.04 735.249 216.734 738.88C214.428 742.512 210.62 744.959 205.309 746.221L195.094 748.649Z" fill="white"/>
<path d="M25.581 688.719L31.0723 711.825L32.5317 711.478C35.0856 710.872 36.8272 709.28 37.7567 706.703C38.7267 704.117 38.7782 701 37.9112 697.352C37.0345 693.663 35.4721 691.143 33.224 689.793C31.0068 688.393 28.9456 687.919 27.0403 688.372L25.581 688.719ZM39.1196 722.44L17.0469 727.685L5.91964 680.865L27.9924 675.619C34.7621 674.01 40.6671 675.069 45.7071 678.797C50.7472 682.524 54.0476 687.671 55.6083 694.238C57.1593 700.765 56.4331 706.719 53.4294 712.101C50.4161 717.442 45.6462 720.889 39.1196 722.44ZM78.373 695.959L82.2314 712.194L65.388 716.197L54.2607 669.376L81.3196 662.945C86.5489 661.703 91.0017 662.058 94.6778 664.011C98.3444 665.923 100.751 669.291 101.897 674.115C103.535 681.006 101.78 686.327 96.6329 690.077L110.263 705.532L91.5348 709.983L79.7715 695.626L78.373 695.959ZM73.922 677.23L75.555 684.101L82.0005 682.57C83.9463 682.107 84.6494 680.741 84.1099 678.471C83.5608 676.16 82.3133 675.236 80.3675 675.699L73.922 677.23ZM133.282 681.56L126.489 668.656L126.715 683.121L133.282 681.56ZM139.383 692.637L126.735 695.643L126.742 701.616L111.783 705.171L115.006 654.939L134.282 650.358L159.76 693.769L142.308 697.916L139.383 692.637ZM176.381 652.88C172.368 653.834 171.276 658.162 173.107 665.864C174.937 673.566 177.9 676.931 181.994 675.958C184.953 675.255 186.532 673.338 186.73 670.207L183.386 671.002L181.16 661.638L201.53 656.797L207.614 682.396L194.541 685.503L193.311 683.033C191.946 685.756 188.689 687.729 183.54 688.952C177.095 690.484 171.243 689.648 165.984 686.444C160.767 683.23 157.223 677.691 155.354 669.826C153.476 661.921 154.407 655.297 158.148 649.954C161.889 644.611 166.678 641.246 172.515 639.859C178.393 638.462 183.702 638.635 188.442 640.378C193.213 642.071 196.739 645.194 199.02 649.748L183.756 657.423C181.88 653.672 179.462 652.148 176.502 652.851C176.502 652.851 176.462 652.861 176.381 652.88ZM226.7 640.793C225.861 637.267 226.892 633.852 229.79 630.551C232.679 627.209 237.063 624.84 242.941 623.443C253.115 621.025 260.723 622.579 265.762 628.105L254.2 636.763C252.865 635.11 250.313 634.732 246.543 635.628C243.867 636.264 242.761 637.554 243.223 639.5C243.676 641.405 244.875 642.127 246.821 641.664L271.387 635.826L274.191 647.623L271.393 648.287L276.105 668.11L261.146 671.665L259.708 668.859C257.712 671.09 255.396 672.518 252.761 673.144C246.923 674.531 242.04 674.257 238.111 672.322C234.173 670.345 231.688 667.189 230.657 662.851C229.424 657.662 230.715 653.544 234.53 650.496C230.427 648.73 227.817 645.496 226.7 640.793ZM247.426 657.453C247.994 659.844 249.763 660.709 252.732 660.046C254.029 659.738 255.161 659.276 256.128 658.661L254.611 652.276L249.625 653.461C247.638 653.933 246.905 655.264 247.426 657.453ZM43.3846 763.632L48.876 786.739L50.3354 786.392C52.8892 785.785 54.6309 784.193 55.5604 781.617C56.5304 779.031 56.5819 775.914 55.7148 772.265C54.8381 768.576 53.2757 766.057 51.0276 764.707C48.8105 763.306 46.7492 762.833 44.844 763.286L43.3846 763.632ZM56.9233 797.353L34.8506 802.599L23.7233 755.778L45.796 750.532C52.5658 748.923 58.4707 749.983 63.5108 753.71C68.5508 757.437 71.8512 762.585 73.4119 769.152C74.963 775.678 74.2367 781.632 71.2331 787.014C68.2198 792.356 63.4499 795.802 56.9233 797.353ZM96.1766 770.872L100.035 787.107L83.1917 791.11L72.0644 744.289L99.1232 737.859C104.353 736.616 108.805 736.971 112.481 738.924C116.148 740.836 118.555 744.205 119.701 749.029C121.339 755.92 119.584 761.241 114.437 764.991L128.067 780.446L109.338 784.896L97.5752 770.54L96.1766 770.872ZM91.7257 752.144L93.3587 759.015L99.8041 757.483C101.75 757.021 102.453 755.654 101.914 753.384C101.364 751.074 100.117 750.15 98.1712 750.612L91.7257 752.144ZM150.909 762.49C155.056 761.376 156.223 757.009 154.412 749.388C152.601 741.766 149.648 738.442 145.554 739.415C141.5 740.379 140.384 744.691 142.204 752.353C144.025 760.015 146.927 763.394 150.909 762.49ZM126.759 736.559C130.052 731.493 135.286 728.108 142.461 726.403C149.636 724.698 155.834 725.366 161.054 728.408C166.274 731.451 169.842 737.005 171.759 745.072C173.667 753.099 172.998 759.746 169.753 765.014C166.539 770.232 161.243 773.717 153.866 775.471C146.488 777.224 140.241 776.439 135.126 773.115C130.041 769.741 126.555 764.081 124.666 756.136C122.768 748.15 123.466 741.624 126.759 736.559ZM190.354 728.704L192.29 736.852L198.796 735.306C200.702 734.853 201.332 733.269 200.686 730.553C200.041 727.837 198.745 726.71 196.799 727.172L190.354 728.704ZM195.094 748.649L198.663 763.668L181.82 767.671L170.692 720.85L197.751 714.419C202.981 713.176 207.457 713.633 211.182 715.788C214.896 717.904 217.327 721.373 218.473 726.197C219.62 731.021 219.04 735.249 216.734 738.88C214.428 742.512 210.62 744.959 205.309 746.221L195.094 748.649Z" fill="white"/>
<path d="M25.581 688.719L31.0723 711.825L32.5317 711.478C35.0856 710.872 36.8272 709.28 37.7567 706.703C38.7267 704.117 38.7782 701 37.9112 697.352C37.0345 693.663 35.4721 691.143 33.224 689.793C31.0068 688.393 28.9456 687.919 27.0403 688.372L25.581 688.719ZM39.1196 722.44L17.0469 727.685L5.91964 680.865L27.9924 675.619C34.7621 674.01 40.6671 675.069 45.7071 678.797C50.7472 682.524 54.0476 687.671 55.6083 694.238C57.1593 700.765 56.4331 706.719 53.4294 712.101C50.4161 717.442 45.6462 720.889 39.1196 722.44ZM78.373 695.959L82.2314 712.194L65.388 716.197L54.2607 669.376L81.3196 662.945C86.5489 661.703 91.0017 662.058 94.6778 664.011C98.3444 665.923 100.751 669.291 101.897 674.115C103.535 681.006 101.78 686.327 96.6329 690.077L110.263 705.532L91.5348 709.983L79.7715 695.626L78.373 695.959ZM73.922 677.23L75.555 684.101L82.0005 682.57C83.9463 682.107 84.6494 680.741 84.1099 678.471C83.5608 676.16 82.3133 675.236 80.3675 675.699L73.922 677.23ZM133.282 681.56L126.489 668.656L126.715 683.121L133.282 681.56ZM139.383 692.637L126.735 695.643L126.742 701.616L111.783 705.171L115.006 654.939L134.282 650.358L159.76 693.769L142.308 697.916L139.383 692.637ZM176.381 652.88C172.368 653.834 171.276 658.162 173.107 665.864C174.937 673.566 177.9 676.931 181.994 675.958C184.953 675.255 186.532 673.338 186.73 670.207L183.386 671.002L181.16 661.638L201.53 656.797L207.614 682.396L194.541 685.503L193.311 683.033C191.946 685.756 188.689 687.729 183.54 688.952C177.095 690.484 171.243 689.648 165.984 686.444C160.767 683.23 157.223 677.691 155.354 669.826C153.476 661.921 154.407 655.297 158.148 649.954C161.889 644.611 166.678 641.246 172.515 639.859C178.393 638.462 183.702 638.635 188.442 640.378C193.213 642.071 196.739 645.194 199.02 649.748L183.756 657.423C181.88 653.672 179.462 652.148 176.502 652.851C176.502 652.851 176.462 652.861 176.381 652.88ZM226.7 640.793C225.861 637.267 226.892 633.852 229.79 630.551C232.679 627.209 237.063 624.84 242.941 623.443C253.115 621.025 260.723 622.579 265.762 628.105L254.2 636.763C252.865 635.11 250.313 634.732 246.543 635.628C243.867 636.264 242.761 637.554 243.223 639.5C243.676 641.405 244.875 642.127 246.821 641.664L271.387 635.826L274.191 647.623L271.393 648.287L276.105 668.11L261.146 671.665L259.708 668.859C257.712 671.09 255.396 672.518 252.761 673.144C246.923 674.531 242.04 674.257 238.111 672.322C234.173 670.345 231.688 667.189 230.657 662.851C229.424 657.662 230.715 653.544 234.53 650.496C230.427 648.73 227.817 645.496 226.7 640.793ZM247.426 657.453C247.994 659.844 249.763 660.709 252.732 660.046C254.029 659.738 255.161 659.276 256.128 658.661L254.611 652.276L249.625 653.461C247.638 653.933 246.905 655.264 247.426 657.453ZM43.3846 763.632L48.876 786.739L50.3354 786.392C52.8892 785.785 54.6309 784.193 55.5604 781.617C56.5304 779.031 56.5819 775.914 55.7148 772.265C54.8381 768.576 53.2757 766.057 51.0276 764.707C48.8105 763.306 46.7492 762.833 44.844 763.286L43.3846 763.632ZM56.9233 797.353L34.8506 802.599L23.7233 755.778L45.796 750.532C52.5658 748.923 58.4707 749.983 63.5108 753.71C68.5508 757.437 71.8512 762.585 73.4119 769.152C74.963 775.678 74.2367 781.632 71.2331 787.014C68.2198 792.356 63.4499 795.802 56.9233 797.353ZM96.1766 770.872L100.035 787.107L83.1917 791.11L72.0644 744.289L99.1232 737.859C104.353 736.616 108.805 736.971 112.481 738.924C116.148 740.836 118.555 744.205 119.701 749.029C121.339 755.92 119.584 761.241 114.437 764.991L128.067 780.446L109.338 784.896L97.5752 770.54L96.1766 770.872ZM91.7257 752.144L93.3587 759.015L99.8041 757.483C101.75 757.021 102.453 755.654 101.914 753.384C101.364 751.074 100.117 750.15 98.1712 750.612L91.7257 752.144ZM150.909 762.49C155.056 761.376 156.223 757.009 154.412 749.388C152.601 741.766 149.648 738.442 145.554 739.415C141.5 740.379 140.384 744.691 142.204 752.353C144.025 760.015 146.927 763.394 150.909 762.49ZM126.759 736.559C130.052 731.493 135.286 728.108 142.461 726.403C149.636 724.698 155.834 725.366 161.054 728.408C166.274 731.451 169.842 737.005 171.759 745.072C173.667 753.099 172.998 759.746 169.753 765.014C166.539 770.232 161.243 773.717 153.866 775.471C146.488 777.224 140.241 776.439 135.126 773.115C130.041 769.741 126.555 764.081 124.666 756.136C122.768 748.15 123.466 741.624 126.759 736.559ZM190.354 728.704L192.29 736.852L198.796 735.306C200.702 734.853 201.332 733.269 200.686 730.553C200.041 727.837 198.745 726.71 196.799 727.172L190.354 728.704ZM195.094 748.649L198.663 763.668L181.82 767.671L170.692 720.85L197.751 714.419C202.981 713.176 207.457 713.633 211.182 715.788C214.896 717.904 217.327 721.373 218.473 726.197C219.62 731.021 219.04 735.249 216.734 738.88C214.428 742.512 210.62 744.959 205.309 746.221L195.094 748.649Z" fill="white"/>
<path d="M25.581 688.719L31.0723 711.825L32.5317 711.478C35.0856 710.872 36.8272 709.28 37.7567 706.703C38.7267 704.117 38.7782 701 37.9112 697.352C37.0345 693.663 35.4721 691.143 33.224 689.793C31.0068 688.393 28.9456 687.919 27.0403 688.372L25.581 688.719ZM39.1196 722.44L17.0469 727.685L5.91964 680.865L27.9924 675.619C34.7621 674.01 40.6671 675.069 45.7071 678.797C50.7472 682.524 54.0476 687.671 55.6083 694.238C57.1593 700.765 56.4331 706.719 53.4294 712.101C50.4161 717.442 45.6462 720.889 39.1196 722.44ZM78.373 695.959L82.2314 712.194L65.388 716.197L54.2607 669.376L81.3196 662.945C86.5489 661.703 91.0017 662.058 94.6778 664.011C98.3444 665.923 100.751 669.291 101.897 674.115C103.535 681.006 101.78 686.327 96.6329 690.077L110.263 705.532L91.5348 709.983L79.7715 695.626L78.373 695.959ZM73.922 677.23L75.555 684.101L82.0005 682.57C83.9463 682.107 84.6494 680.741 84.1099 678.471C83.5608 676.16 82.3133 675.236 80.3675 675.699L73.922 677.23ZM133.282 681.56L126.489 668.656L126.715 683.121L133.282 681.56ZM139.383 692.637L126.735 695.643L126.742 701.616L111.783 705.171L115.006 654.939L134.282 650.358L159.76 693.769L142.308 697.916L139.383 692.637ZM176.381 652.88C172.368 653.834 171.276 658.162 173.107 665.864C174.937 673.566 177.9 676.931 181.994 675.958C184.953 675.255 186.532 673.338 186.73 670.207L183.386 671.002L181.16 661.638L201.53 656.797L207.614 682.396L194.541 685.503L193.311 683.033C191.946 685.756 188.689 687.729 183.54 688.952C177.095 690.484 171.243 689.648 165.984 686.444C160.767 683.23 157.223 677.691 155.354 669.826C153.476 661.921 154.407 655.297 158.148 649.954C161.889 644.611 166.678 641.246 172.515 639.859C178.393 638.462 183.702 638.635 188.442 640.378C193.213 642.071 196.739 645.194 199.02 649.748L183.756 657.423C181.88 653.672 179.462 652.148 176.502 652.851C176.502 652.851 176.462 652.861 176.381 652.88ZM226.7 640.793C225.861 637.267 226.892 633.852 229.79 630.551C232.679 627.209 237.063 624.84 242.941 623.443C253.115 621.025 260.723 622.579 265.762 628.105L254.2 636.763C252.865 635.11 250.313 634.732 246.543 635.628C243.867 636.264 242.761 637.554 243.223 639.5C243.676 641.405 244.875 642.127 246.821 641.664L271.387 635.826L274.191 647.623L271.393 648.287L276.105 668.11L261.146 671.665L259.708 668.859C257.712 671.09 255.396 672.518 252.761 673.144C246.923 674.531 242.04 674.257 238.111 672.322C234.173 670.345 231.688 667.189 230.657 662.851C229.424 657.662 230.715 653.544 234.53 650.496C230.427 648.73 227.817 645.496 226.7 640.793ZM247.426 657.453C247.994 659.844 249.763 660.709 252.732 660.046C254.029 659.738 255.161 659.276 256.128 658.661L254.611 652.276L249.625 653.461C247.638 653.933 246.905 655.264 247.426 657.453ZM43.3846 763.632L48.876 786.739L50.3354 786.392C52.8892 785.785 54.6309 784.193 55.5604 781.617C56.5304 779.031 56.5819 775.914 55.7148 772.265C54.8381 768.576 53.2757 766.057 51.0276 764.707C48.8105 763.306 46.7492 762.833 44.844 763.286L43.3846 763.632ZM56.9233 797.353L34.8506 802.599L23.7233 755.778L45.796 750.532C52.5658 748.923 58.4707 749.983 63.5108 753.71C68.5508 757.437 71.8512 762.585 73.4119 769.152C74.963 775.678 74.2367 781.632 71.2331 787.014C68.2198 792.356 63.4499 795.802 56.9233 797.353ZM96.1766 770.872L100.035 787.107L83.1917 791.11L72.0644 744.289L99.1232 737.859C104.353 736.616 108.805 736.971 112.481 738.924C116.148 740.836 118.555 744.205 119.701 749.029C121.339 755.92 119.584 761.241 114.437 764.991L128.067 780.446L109.338 784.896L97.5752 770.54L96.1766 770.872ZM91.7257 752.144L93.3587 759.015L99.8041 757.483C101.75 757.021 102.453 755.654 101.914 753.384C101.364 751.074 100.117 750.15 98.1712 750.612L91.7257 752.144ZM150.909 762.49C155.056 761.376 156.223 757.009 154.412 749.388C152.601 741.766 149.648 738.442 145.554 739.415C141.5 740.379 140.384 744.691 142.204 752.353C144.025 760.015 146.927 763.394 150.909 762.49ZM126.759 736.559C130.052 731.493 135.286 728.108 142.461 726.403C149.636 724.698 155.834 725.366 161.054 728.408C166.274 731.451 169.842 737.005 171.759 745.072C173.667 753.099 172.998 759.746 169.753 765.014C166.539 770.232 161.243 773.717 153.866 775.471C146.488 777.224 140.241 776.439 135.126 773.115C130.041 769.741 126.555 764.081 124.666 756.136C122.768 748.15 123.466 741.624 126.759 736.559ZM190.354 728.704L192.29 736.852L198.796 735.306C200.702 734.853 201.332 733.269 200.686 730.553C200.041 727.837 198.745 726.71 196.799 727.172L190.354 728.704ZM195.094 748.649L198.663 763.668L181.82 767.671L170.692 720.85L197.751 714.419C202.981 713.176 207.457 713.633 211.182 715.788C214.896 717.904 217.327 721.373 218.473 726.197C219.62 731.021 219.04 735.249 216.734 738.88C214.428 742.512 210.62 744.959 205.309 746.221L195.094 748.649Z" fill="white"/>
<path d="M26.581 696.719L32.0723 719.825L33.5317 719.478C36.0856 718.872 37.8272 717.28 38.7567 714.703C39.7267 712.117 39.7782 709 38.9112 705.352C38.0345 701.663 36.4721 699.143 34.224 697.793C32.0068 696.393 29.9456 695.919 28.0403 696.372L26.581 696.719ZM40.1196 730.44L18.0469 735.685L6.91964 688.865L28.9924 683.619C35.7621 682.01 41.6671 683.069 46.7071 686.797C51.7472 690.524 55.0476 695.671 56.6083 702.238C58.1593 708.765 57.4331 714.719 54.4294 720.101C51.4161 725.442 46.6462 728.889 40.1196 730.44ZM79.373 703.959L83.2314 720.194L66.388 724.197L55.2607 677.376L82.3196 670.945C87.5489 669.703 92.0017 670.058 95.6778 672.011C99.3444 673.923 101.751 677.291 102.897 682.115C104.535 689.006 102.78 694.327 97.6329 698.077L111.263 713.532L92.5348 717.983L80.7715 703.626L79.373 703.959ZM74.922 685.23L76.555 692.101L83.0005 690.57C84.9463 690.107 85.6494 688.741 85.1099 686.471C84.5608 684.16 83.3133 683.236 81.3675 683.699L74.922 685.23ZM134.282 689.56L127.489 676.656L127.715 691.121L134.282 689.56ZM140.383 700.637L127.735 703.643L127.742 709.616L112.783 713.171L116.006 662.939L135.282 658.358L160.76 701.769L143.308 705.916L140.383 700.637ZM177.381 660.88C173.368 661.834 172.276 666.162 174.107 673.864C175.937 681.566 178.9 684.931 182.994 683.958C185.953 683.255 187.532 681.338 187.73 678.207L184.386 679.002L182.16 669.638L202.53 664.797L208.614 690.396L195.541 693.503L194.311 691.033C192.946 693.756 189.689 695.729 184.54 696.952C178.095 698.484 172.243 697.648 166.984 694.444C161.767 691.23 158.223 685.691 156.354 677.826C154.476 669.921 155.407 663.297 159.148 657.954C162.889 652.611 167.678 649.246 173.515 647.859C179.393 646.462 184.702 646.635 189.442 648.378C194.213 650.071 197.739 653.194 200.02 657.748L184.756 665.423C182.88 661.672 180.462 660.148 177.502 660.851C177.502 660.851 177.462 660.861 177.381 660.88ZM227.7 648.793C226.861 645.267 227.892 641.852 230.79 638.551C233.679 635.209 238.063 632.84 243.941 631.443C254.115 629.025 261.723 630.579 266.762 636.105L255.2 644.763C253.865 643.11 251.313 642.732 247.543 643.628C244.867 644.264 243.761 645.554 244.223 647.5C244.676 649.405 245.875 650.127 247.821 649.664L272.387 643.826L275.191 655.623L272.393 656.287L277.105 676.11L262.146 679.665L260.708 676.859C258.712 679.09 256.396 680.518 253.761 681.144C247.923 682.531 243.04 682.257 239.111 680.322C235.173 678.345 232.688 675.189 231.657 670.851C230.424 665.662 231.715 661.544 235.53 658.496C231.427 656.73 228.817 653.496 227.7 648.793ZM248.426 665.453C248.994 667.844 250.763 668.709 253.732 668.046C255.029 667.738 256.161 667.276 257.128 666.661L255.611 660.276L250.625 661.461C248.638 661.933 247.905 663.264 248.426 665.453ZM44.3846 771.632L49.876 794.739L51.3354 794.392C53.8892 793.785 55.6309 792.193 56.5604 789.617C57.5304 787.031 57.5819 783.914 56.7148 780.265C55.8381 776.576 54.2757 774.057 52.0276 772.707C49.8105 771.306 47.7492 770.833 45.844 771.286L44.3846 771.632ZM57.9233 805.353L35.8506 810.599L24.7233 763.778L46.796 758.532C53.5658 756.923 59.4707 757.983 64.5108 761.71C69.5508 765.437 72.8512 770.585 74.4119 777.152C75.963 783.678 75.2367 789.632 72.2331 795.014C69.2198 800.356 64.4499 803.802 57.9233 805.353ZM97.1766 778.872L101.035 795.107L84.1917 799.11L73.0644 752.289L100.123 745.859C105.353 744.616 109.805 744.971 113.481 746.924C117.148 748.836 119.555 752.205 120.701 757.029C122.339 763.92 120.584 769.241 115.437 772.991L129.067 788.446L110.338 792.896L98.5752 778.54L97.1766 778.872ZM92.7257 760.144L94.3587 767.015L100.804 765.483C102.75 765.021 103.453 763.654 102.914 761.384C102.364 759.074 101.117 758.15 99.1712 758.612L92.7257 760.144ZM151.909 770.49C156.056 769.376 157.223 765.009 155.412 757.388C153.601 749.766 150.648 746.442 146.554 747.415C142.5 748.379 141.384 752.691 143.204 760.353C145.025 768.015 147.927 771.394 151.909 770.49ZM127.759 744.559C131.052 739.493 136.286 736.108 143.461 734.403C150.636 732.698 156.834 733.366 162.054 736.408C167.274 739.451 170.842 745.005 172.759 753.072C174.667 761.099 173.998 767.746 170.753 773.014C167.539 778.232 162.243 781.717 154.866 783.471C147.488 785.224 141.241 784.439 136.126 781.115C131.041 777.741 127.555 772.081 125.666 764.136C123.768 756.15 124.466 749.624 127.759 744.559ZM191.354 736.704L193.29 744.852L199.796 743.306C201.702 742.853 202.332 741.269 201.686 738.553C201.041 735.837 199.745 734.71 197.799 735.172L191.354 736.704ZM196.094 756.649L199.663 771.668L182.82 775.671L171.692 728.85L198.751 722.419C203.981 721.176 208.457 721.633 212.182 723.788C215.896 725.904 218.327 729.373 219.473 734.197C220.62 739.021 220.04 743.249 217.734 746.88C215.428 750.512 211.62 752.959 206.309 754.221L196.094 756.649Z" fill="#FFE337"/>
<path d="M69.5816 913.409L77.0214 923.062L66.5761 931.112L88.5139 959.577L74.8509 970.107L52.9131 941.642L42.4678 949.693L35.028 940.039L69.5816 913.409ZM112.757 925.506C116.079 922.787 115.35 918.325 110.568 912.121C105.786 905.916 101.729 904.099 98.3956 906.668C95.0954 909.211 95.8489 913.602 100.656 919.839C105.463 926.077 109.497 927.965 112.757 925.506ZM80.0862 911.783C81.0079 905.812 84.3895 900.576 90.2309 896.074C96.0724 891.572 101.997 889.636 108.006 890.265C114.015 890.895 119.55 894.493 124.612 901.061C129.648 907.595 131.769 913.93 130.974 920.066C130.187 926.144 126.79 931.497 120.784 936.126C114.778 940.756 108.76 942.606 102.73 941.676C96.7085 940.689 91.2049 936.96 86.2196 930.492C81.2089 923.99 79.1644 917.754 80.0862 911.783ZM153.059 864.459L167.557 883.271L168.745 882.355C170.824 880.753 171.759 878.586 171.548 875.855C171.37 873.099 170.136 870.236 167.847 867.266C165.533 864.262 163.073 862.607 160.469 862.299C157.872 861.933 155.798 862.348 154.247 863.544L153.059 864.459ZM179.254 889.643L161.284 903.492L131.907 865.374L149.877 851.525C155.388 847.277 161.207 845.817 167.333 847.146C173.459 848.474 178.583 851.811 182.703 857.157C186.798 862.471 188.582 868.198 188.054 874.339C187.501 880.446 184.568 885.548 179.254 889.643ZM210.18 850.421C213.503 847.702 212.773 843.241 207.991 837.036C203.21 830.832 199.152 829.014 195.819 831.583C192.519 834.127 193.272 838.517 198.079 844.754C202.887 850.992 206.92 852.881 210.18 850.421ZM177.509 836.699C178.431 830.728 181.813 825.491 187.654 820.989C193.496 816.487 199.421 814.551 205.43 815.18C211.438 815.81 216.973 819.409 222.035 825.976C227.071 832.511 229.192 838.846 228.397 844.982C227.61 851.059 224.214 856.413 218.207 861.042C212.201 865.671 206.183 867.521 200.154 866.592C194.132 865.604 188.628 861.876 183.643 855.407C178.632 848.906 176.588 842.67 177.509 836.699Z" fill="#F4F4F4"/>
<path d="M62.6773 909.409L70.1171 919.062L59.6718 927.112L81.6096 955.577L67.9466 966.107L46.0088 937.642L35.5635 945.693L28.1237 936.039L62.6773 909.409ZM105.852 921.506C109.175 918.787 108.446 914.325 103.664 908.121C98.8821 901.916 94.8246 900.099 91.4913 902.668C88.1911 905.211 88.9446 909.602 93.7518 915.839C98.5591 922.077 102.593 923.965 105.852 921.506ZM73.1819 907.783C74.1036 901.812 77.4852 896.576 83.3266 892.074C89.1681 887.572 95.0932 885.636 101.102 886.265C107.111 886.895 112.646 890.493 117.708 897.061C122.744 903.595 124.864 909.93 124.07 916.066C123.283 922.144 119.886 927.497 113.88 932.126C107.873 936.756 101.855 938.606 95.826 937.676C89.8042 936.689 84.3006 932.96 79.3153 926.492C74.3046 919.99 72.2601 913.754 73.1819 907.783ZM146.155 860.459L160.653 879.271L161.841 878.355C163.92 876.753 164.854 874.586 164.643 871.855C164.466 869.099 163.232 866.236 160.943 863.266C158.628 860.262 156.169 858.607 153.565 858.299C150.968 857.933 148.894 858.348 147.343 859.544L146.155 860.459ZM172.35 885.643L154.38 899.492L125.002 861.374L142.972 847.525C148.484 843.277 154.303 841.817 160.429 843.146C166.555 844.474 171.679 847.811 175.799 853.157C179.894 858.471 181.678 864.198 181.15 870.339C180.597 876.446 177.663 881.548 172.35 885.643ZM203.275 846.421C206.598 843.702 205.869 839.241 201.087 833.036C196.305 826.832 192.248 825.014 188.915 827.583C185.614 830.127 186.368 834.517 191.175 840.754C195.982 846.992 200.016 848.881 203.275 846.421ZM170.605 832.699C171.527 826.728 174.908 821.491 180.75 816.989C186.591 812.487 192.516 810.551 198.525 811.18C204.534 811.81 210.069 815.409 215.131 821.976C220.167 828.511 222.288 834.846 221.493 840.982C220.706 847.059 217.309 852.413 211.303 857.042C205.297 861.671 199.279 863.521 193.249 862.592C187.227 861.604 181.724 857.876 176.739 851.407C171.728 844.906 169.683 838.67 170.605 832.699Z" fill="#FF4D08"/>
<path d="M342.563 687.749L357.061 706.56L358.249 705.645C360.328 704.042 361.263 701.876 361.052 699.145C360.874 696.389 359.64 693.525 357.351 690.555C355.037 687.552 352.577 685.897 349.973 685.589C347.376 685.223 345.302 685.638 343.751 686.833L342.563 687.749ZM368.758 712.932L350.788 726.782L321.411 688.664L339.381 674.815C344.892 670.567 350.711 669.107 356.837 670.435C362.963 671.763 368.087 675.101 372.207 680.447C376.302 685.76 378.086 691.487 377.558 697.628C377.005 703.736 374.072 708.837 368.758 712.932ZM397.373 668.153L385.879 659.178L392.027 672.274L397.373 668.153ZM407.486 675.746L397.189 683.682L399.649 689.125L387.471 698.511L369.776 651.389L385.469 639.294L426.529 668.408L412.322 679.358L407.486 675.746ZM430.022 604.957L437.462 614.61L427.016 622.66L448.954 651.125L435.291 661.655L413.353 633.191L402.908 641.241L395.468 631.588L430.022 604.957ZM476.257 592.049L483.658 601.653L466.381 614.968L469.93 619.572L489.434 604.54L496.874 614.193L463.657 639.794L434.279 601.676L466.754 576.648L474.193 586.301L455.432 600.761L458.98 605.365L476.257 592.049Z" fill="white"/>
<path d="M333.563 688.419L348.061 707.231L349.249 706.315C351.328 704.712 352.263 702.546 352.052 699.815C351.874 697.059 350.64 694.196 348.351 691.225C346.037 688.222 343.577 686.567 340.973 686.259C338.376 685.893 336.302 686.308 334.751 687.504L333.563 688.419ZM359.758 713.603L341.788 727.452L312.411 689.334L330.381 675.485C335.892 671.237 341.711 669.777 347.837 671.105C353.963 672.433 359.087 675.771 363.207 681.117C367.302 686.431 369.086 692.158 368.558 698.298C368.005 704.406 365.072 709.508 359.758 713.603ZM388.373 668.823L376.879 659.848L383.027 672.944L388.373 668.823ZM398.486 676.416L388.189 684.352L390.649 689.795L378.471 699.181L360.776 652.059L376.469 639.965L417.529 669.078L403.322 680.028L398.486 676.416ZM421.022 605.627L428.462 615.28L418.016 623.331L439.954 651.795L426.291 662.325L404.353 633.861L393.908 641.911L386.468 632.258L421.022 605.627ZM467.257 592.719L474.658 602.323L457.381 615.638L460.93 620.242L480.434 605.21L487.874 614.863L454.657 640.464L425.279 602.346L457.754 577.318L465.193 586.971L446.432 601.431L449.98 606.035L467.257 592.719Z" fill="#00792C"/>
<path d="M277.983 939.564L258.171 939.484L246.802 891.313L264.739 891.385L269.882 918.093L275.614 891.429L289.051 891.483L294.569 918.192L299.926 891.526L317.863 891.598L306.17 939.677L286.296 939.597L282.254 918.706L277.983 939.564ZM361.416 909.773L361.367 921.898L339.555 921.811L339.532 927.623L364.156 927.722L364.107 939.909L322.17 939.741L322.363 891.616L363.363 891.781L363.314 903.968L339.627 903.873L339.604 909.686L361.416 909.773ZM409.603 909.967L409.554 922.092L387.742 922.004L387.719 927.816L412.343 927.915L412.295 940.103L370.357 939.934L370.551 891.81L411.55 891.974L411.501 904.162L387.814 904.067L387.791 909.879L409.603 909.967ZM418.738 892.003L436.05 892.073L435.978 910.073L436.978 910.077L448.862 892.124L464.862 892.188L450.34 913.255L464.669 940.313L445.419 940.236L436.742 922.201L435.929 922.197L435.857 940.197L418.544 940.128L418.738 892.003Z" fill="white"/>
<path d="M278.477 954.129L258.665 954.05L247.295 905.879L265.233 905.951L270.376 932.659L276.108 905.995L289.545 906.049L295.063 932.758L300.42 906.092L318.357 906.164L306.664 954.243L286.789 954.163L282.748 933.271L278.477 954.129ZM361.91 924.339L361.861 936.464L340.049 936.376L340.025 942.189L364.65 942.288L364.601 954.475L322.664 954.307L322.857 906.182L363.857 906.347L363.808 918.534L340.121 918.439L340.097 924.252L361.91 924.339ZM410.097 924.533L410.048 936.657L388.236 936.57L388.213 942.382L412.837 942.481L412.788 954.669L370.851 954.5L371.044 906.376L412.044 906.54L411.995 918.728L388.308 918.633L388.285 924.445L410.097 924.533ZM419.232 906.569L436.544 906.639L436.472 924.638L437.472 924.642L449.356 906.69L465.356 906.754L450.834 927.821L465.163 954.879L445.913 954.802L437.235 936.767L436.423 936.763L436.351 954.763L419.038 954.694L419.232 906.569Z" fill="#EA66FF"/>
<path d="M46.0829 827.703L46.1133 839.891L32.9258 839.923L33.0155 875.861L15.7656 875.904L15.6759 839.966L2.48844 839.999L2.45803 827.812L46.0829 827.703ZM70.4705 857.767L66.8103 843.651L63.7205 857.784L70.4705 857.767ZM73.8759 869.946L60.8759 869.979L59.5154 875.795L44.1405 875.833L58.7704 827.671L78.5828 827.622L93.4528 875.71L75.5154 875.755L73.8759 869.946ZM115.175 864.343C117.758 864.337 119.048 863.542 119.044 861.959C119.04 860.375 118.058 859.274 116.098 858.654L110.03 856.606C100.522 853.505 95.7612 848.996 95.7464 843.079C95.7324 837.454 97.6595 833.304 101.528 830.627C105.396 827.909 110.601 826.542 117.143 826.526C125.726 826.504 132.173 830.113 136.482 837.353L122.119 842.013C120.823 840.183 119.133 839.271 117.049 839.276C115.008 839.281 113.989 840.013 113.992 841.471C113.996 842.763 115.165 843.781 117.5 844.525L124.819 846.944C133.534 849.839 137.899 854.182 137.914 859.974C137.928 865.766 136.022 870.062 132.196 872.863C128.411 875.665 123.31 877.073 116.894 877.089C105.977 877.116 98.1963 873.073 93.551 864.96L106.787 859.177C108.212 862.632 111.008 864.354 115.175 864.343ZM142.395 827.463L159.708 827.42L159.752 845.42L160.752 845.417L172.52 827.388L188.52 827.348L174.135 848.509L188.64 875.473L169.39 875.521L160.595 857.542L159.783 857.545L159.828 875.544L142.515 875.588L142.395 827.463ZM209.549 864.108C212.133 864.101 213.422 863.307 213.418 861.723C213.414 860.14 212.432 859.038 210.473 858.418L204.405 856.371C194.897 853.269 190.136 848.76 190.121 842.844C190.107 837.219 192.034 833.068 195.903 830.392C199.771 827.674 204.976 826.307 211.517 826.29C220.101 826.269 226.547 829.878 230.857 837.117L216.494 841.778C215.197 839.948 213.508 839.035 211.424 839.041C209.383 839.046 208.364 839.777 208.367 841.236C208.37 842.527 209.54 843.545 211.875 844.29L219.193 846.709C227.909 849.604 232.274 853.947 232.288 859.739C232.303 865.53 230.397 869.827 226.571 872.628C222.786 875.429 217.685 876.838 211.269 876.854C200.352 876.881 192.571 872.838 187.926 864.724L201.161 858.941C202.587 862.396 205.383 864.118 209.549 864.108Z" fill="white"/>
<path d="M45.527 818.712L45.5574 830.899L32.3699 830.932L32.4596 866.87L15.2097 866.913L15.12 830.975L1.93253 831.008L1.90213 818.821L45.527 818.712ZM69.9146 848.776L66.2543 834.66L63.1646 848.793L69.9146 848.776ZM73.32 860.955L60.32 860.988L58.9595 866.804L43.5846 866.842L58.2145 818.68L78.0269 818.631L92.8969 866.719L74.9595 866.764L73.32 860.955ZM114.619 855.352C117.202 855.346 118.492 854.551 118.488 852.967C118.484 851.384 117.502 850.282 115.542 849.662L109.474 847.615C99.9665 844.514 95.2053 840.005 95.1905 834.088C95.1765 828.463 97.1036 824.312 100.972 821.636C104.84 818.918 110.045 817.551 116.587 817.535C125.17 817.513 131.617 821.122 135.926 828.361L121.563 833.022C120.267 831.192 118.577 830.28 116.494 830.285C114.452 830.29 113.433 831.022 113.437 832.48C113.44 833.772 114.609 834.79 116.944 835.534L124.263 837.953C132.978 840.848 137.343 845.191 137.358 850.983C137.372 856.775 135.466 861.071 131.64 863.872C127.855 866.673 122.755 868.082 116.338 868.098C105.421 868.125 97.6403 864.082 92.9951 855.969L106.231 850.186C107.656 853.64 110.452 855.363 114.619 855.352ZM141.839 818.472L159.152 818.428L159.197 836.428L160.197 836.426L171.964 818.396L187.964 818.357L173.579 839.517L188.084 866.481L168.834 866.529L160.039 848.551L159.227 848.553L159.272 866.553L141.959 866.596L141.839 818.472ZM208.993 855.117C211.577 855.11 212.866 854.315 212.862 852.732C212.858 851.149 211.877 850.047 209.917 849.427L203.849 847.379C194.341 844.278 189.58 839.769 189.565 833.853C189.551 828.228 191.478 824.077 195.347 821.401C199.215 818.683 204.42 817.315 210.961 817.299C219.545 817.278 225.991 820.887 230.301 828.126L215.938 832.787C214.641 830.957 212.952 830.044 210.868 830.049C208.827 830.055 207.808 830.786 207.811 832.245C207.814 833.536 208.984 834.554 211.319 835.298L218.637 837.718C227.353 840.612 231.718 844.956 231.732 850.747C231.747 856.539 229.841 860.836 226.015 863.637C222.23 866.438 217.129 867.846 210.713 867.862C199.796 867.89 192.015 863.847 187.37 855.733L200.605 849.95C202.031 853.405 204.827 855.127 208.993 855.117Z" fill="#FFC6B9"/>
<defs>
<radialGradient id="paint0_radial_129_106" cx="0" cy="0" r="1" gradientUnits="userSpaceOnUse" gradientTransform="translate(376 776.5) rotate(121.045) scale(303.467 316.89)">
<stop stop-color="#FF0000"/>
<stop offset="1" stop-color="#212227"/>
</radialGradient>
</defs>
</svg>
